<?xml version="1.0" standalone="no"?>
<!DOCTYPE svg PUBLIC "-//W3C//DTD SVG 1.1//EN" "http://www.w3.org/Graphics/SVG/1.1/DTD/svg11.dtd" >
<svg xmlns="http://www.w3.org/2000/svg" xmlns:xlink="http://www.w3.org/1999/xlink" version="1.1">
<metadata>
Created by FontForge 20150824 at Wed Jul 27 12:14:43 2016
 By Everything Fonts
2005 Mike Abbink published by FSI Fonts und Software GmbH
</metadata>
<defs>
<font id="kievitotlightopentype" horiz-adv-x="512" >
  <font-face 
    font-family="kievitotlightopentype"
    font-weight="300"
    font-stretch="normal"
    units-per-em="1000"
    panose-1="2 0 5 3 4 0 0 2 0 4"
    ascent="760"
    descent="-240"
    x-height="477"
    cap-height="666"
    bbox="-181 -250 1167 886"
    underline-thickness="20"
    underline-position="-153"
    unicode-range="U+000D-FB04"
  />
<missing-glyph horiz-adv-x="520" 
d="M88 0v666h344v-666h-344zM132 44h256v578h-256v-578z" />
    <glyph glyph-name="uniFB00" unicode="ff" horiz-adv-x="573" 
d="M106 0v435h-85v42h85v69q0 82 47.5 131.5t129.5 49.5t134 -44q43 48 121 48q46 0 74 -13l-14 -46q-24 13 -62 13q-107 0 -107 -132v-76h124v-42h-124v-435h-52v435h-219v-435h-52zM158 477h219v80q0 49 15 85q-43 39 -111 39q-58 0 -90.5 -37t-32.5 -111v-56z" />
    <glyph glyph-name="fi" unicode="fi" horiz-adv-x="518" 
d="M104 0v435h-83v42h83v79q0 81 46.5 128t128.5 47q80 0 141 -45l-26 -41q-52 40 -118 40q-58 0 -89.5 -34.5t-31.5 -100.5v-73h267v-477h-51v435h-216v-435h-51z" />
    <glyph glyph-name="fl" unicode="fl" horiz-adv-x="522" 
d="M104 0v435h-83v42h83v81q0 83 46 128t126 45q85 0 156 -23v-708h-52v671q-42 14 -107 14q-118 0 -118 -134v-74h119v-42h-119v-435h-51z" />
    <glyph glyph-name="uniFB03" unicode="ffi" horiz-adv-x="788" 
d="M106 0v435h-85v42h85v69q0 82 47.5 131.5t129.5 49.5q84 0 138 -46q47 50 132 50q79 0 140 -45l-26 -41q-50 40 -117 40q-59 0 -90 -34.5t-31 -100.5v-73h263v-477h-52v435h-211v-435h-52v435h-219v-435h-52zM158 477h219v79q0 47 17 84q-45 41 -113 41q-58 0 -90.5 -37
t-32.5 -111v-56z" />
    <glyph glyph-name="uniFB04" unicode="ffl" horiz-adv-x="795" 
d="M106 0v435h-85v42h85v69q0 82 47.5 131.5t129.5 49.5q84 0 136 -46q47 50 131 50q86 0 155 -23v-708h-51v671q-42 14 -107 14q-118 0 -118 -134v-74h124v-42h-124v-435h-52v435h-219v-435h-52zM158 477h219v81q0 45 16 83q-44 40 -112 40q-58 0 -90.5 -37t-32.5 -111v-56
z" />
    <glyph glyph-name=".notdef" horiz-adv-x="520" 
d="M88 0v666h344v-666h-344zM132 44h256v578h-256v-578z" />
    <glyph glyph-name=".null" horiz-adv-x="0" 
 />
    <glyph glyph-name=".null" horiz-adv-x="0" 
 />
    <glyph glyph-name="nonmarkingreturn" horiz-adv-x="333" 
 />
    <glyph glyph-name="CR" unicode="&#xd;" horiz-adv-x="232" 
 />
    <glyph glyph-name="space" unicode=" " horiz-adv-x="232" 
 />
    <glyph glyph-name="exclam" unicode="!" horiz-adv-x="260" 
d="M130 -8q-17 0 -30 13t-13 31t13 30.5t30 12.5t29.5 -12.5t12.5 -30.5t-12.5 -31t-29.5 -13zM110 181l-12 485h63l-11 -485h-40z" />
    <glyph glyph-name="quotedbl" unicode="&#x22;" horiz-adv-x="289" 
d="M67 452l-18 214h67l-9 -214h-40zM182 452l-9 214h67l-18 -214h-40z" />
    <glyph glyph-name="numbersign" unicode="#" horiz-adv-x="485" 
d="M104 112l22 152h-102l7 44h102l19 123h-102l6 44h101l21 135h44l-21 -135h112l20 135h44l-20 -135h103l-7 -44h-102l-18 -123h103l-7 -44h-103l-22 -152h-44l22 152h-111l-23 -152h-44zM177 308h112l18 123h-112z" />
    <glyph glyph-name="dollar" unicode="$" horiz-adv-x="402" 
d="M180 -123v112q-87 6 -136 47l24 40q52 -42 132 -42q54 0 86.5 22t32.5 60q0 9 -2 17.5t-7.5 16t-10.5 13.5t-15 12.5t-16.5 11t-19.5 10.5t-19.5 9.5t-21.5 9.5t-21 9q-31 13 -49.5 23t-40.5 26.5t-32.5 39t-10.5 50.5q0 49 34.5 82.5t92.5 39.5v105h51v-104
q75 -6 121 -47l-26 -39q-46 42 -121 42q-46 0 -73.5 -20.5t-27.5 -56.5q0 -24 20 -44t35 -28t58 -26l3 -1.5l3 -1.5t3.5 -1.5t3.5 -1.5q34 -15 52.5 -24.5t43 -27t35.5 -39.5t11 -49q0 -55 -38 -90t-103 -42v-113h-51z" />
    <glyph glyph-name="percent" unicode="%" horiz-adv-x="702" 
d="M168 222q-62 0 -96.5 40t-34.5 93q0 54 35.5 94t97.5 40q63 0 97 -39.5t34 -92.5q0 -54 -35 -94.5t-98 -40.5zM170 258q41 0 63.5 27.5t22.5 69.5t-23 70t-64 28q-42 0 -64.5 -27.5t-22.5 -69.5t23.5 -70t64.5 -28zM533 -11q-63 0 -97.5 40t-34.5 93q0 54 35.5 94.5
t98.5 40.5q62 0 96.5 -40t34.5 -93q0 -54 -35.5 -94.5t-97.5 -40.5zM534 26q41 0 64 27t23 70q0 42 -23.5 69.5t-64.5 27.5t-64 -27t-23 -69q0 -43 23.5 -70.5t64.5 -27.5zM189 0l285 477h46l-285 -477h-46z" />
    <glyph glyph-name="ampersand" unicode="&#x26;" horiz-adv-x="611" 
d="M257 -11q-97 0 -156.5 52t-59.5 127q0 64 35 106t108 84q-48 51 -70.5 89.5t-22.5 80.5q0 66 48 107.5t120 41.5q66 0 111 -38.5t45 -97.5q0 -57 -39.5 -100.5t-115.5 -87.5l197 -204q43 66 59 162l49 -9q-17 -109 -75 -187l111 -115h-70l-75 77q-85 -88 -199 -88z
M231 384q65 37 98.5 72.5t33.5 82.5q0 38 -30 66t-75 28q-49 0 -80.5 -29t-31.5 -73q0 -35 19.5 -67t65.5 -80zM259 36q94 0 166 74l-211 217q-58 -33 -88.5 -68.5t-30.5 -87.5q0 -57 44 -96t120 -39z" />
    <glyph glyph-name="quotesingle" unicode="'" horiz-adv-x="169" 
d="M64 452l-13 214h68l-14 -214h-41z" />
    <glyph glyph-name="parenleft" unicode="(" horiz-adv-x="296" 
d="M242 -181q-182 196 -182 457q0 254 182 444h50q-179 -191 -179 -443q0 -257 179 -458h-50z" />
    <glyph glyph-name="parenright" unicode=")" horiz-adv-x="296" 
d="M4 -181q179 191 179 443q0 257 -179 458h50q182 -196 182 -457q0 -256 -182 -444h-50z" />
    <glyph glyph-name="asterisk" unicode="*" horiz-adv-x="440" 
d="M136 344l-35 25l87 116l-139 43l14 40l136 -47l-3 145h47l-3 -146l137 49l14 -41l-140 -43l87 -116l-34 -25l-84 119z" />
    <glyph glyph-name="plus" unicode="+" horiz-adv-x="583" 
d="M268 16v228h-223v44h223v216h50v-215h220v-45h-220v-228h-50z" />
    <glyph glyph-name="comma" unicode="," horiz-adv-x="198" 
d="M48 -120q38 52 38 93q0 13 -15.5 32t-15.5 36q0 18 12 30t30 12q20 0 33.5 -15t13.5 -41q0 -36 -17 -77t-42 -70h-37z" />
    <glyph glyph-name="hyphen" unicode="-" horiz-adv-x="301" 
d="M55 266v46h191v-46h-191z" />
    <glyph glyph-name="period" unicode="." horiz-adv-x="190" 
d="M95 -9q-18 0 -31.5 14t-13.5 33t13.5 32t31.5 13q19 0 32 -13t13 -32q0 -20 -13 -33.5t-32 -13.5z" />
    <glyph glyph-name="slash" unicode="/" horiz-adv-x="385" 
d="M63 0l241 666h50l-240 -666h-51z" />
    <glyph glyph-name="zero" unicode="0" horiz-adv-x="561" 
d="M279 -11q-76 0 -131.5 38.5t-80.5 93.5t-25 117q0 98 63.5 174t175.5 76t174.5 -75t62.5 -173t-63.5 -174.5t-175.5 -76.5zM281 34q87 0 135 59.5t48 144.5t-49.5 145t-135.5 60t-134 -59t-48 -144q0 -86 49 -146t135 -60z" />
    <glyph glyph-name="one" unicode="1" horiz-adv-x="305" 
d="M159 0v428l-110 -40l-10 45l126 44h46v-477h-52z" />
    <glyph glyph-name="two" unicode="2" horiz-adv-x="470" 
d="M35 0v22q9 8 41.5 35.5t52.5 45.5t52 48t53 54t42 51.5t31.5 52.5t10.5 46q0 40 -26.5 63.5t-74.5 23.5q-75 0 -128 -55l-29 33q29 30 72 49t89 19q66 0 109 -33.5t43 -94.5q0 -18 -5 -36.5t-17 -39t-23 -37.5t-31.5 -39.5t-32.5 -36.5t-37.5 -37t-35.5 -32t-35.5 -31.5
t-29.5 -25.5h298v-45h-389z" />
    <glyph glyph-name="three" unicode="3" horiz-adv-x="417" 
d="M127 -188q-46 0 -72 4l8 45q23 -5 59 -5q80 0 137 42.5t57 112.5q0 76 -53.5 113t-147.5 37v41q64 1 122 42.5t58 105.5q0 41 -27.5 66.5t-74.5 25.5q-69 0 -121 -52l-27 34q61 64 150 64q71 0 112.5 -38.5t41.5 -95.5q0 -58 -42 -104.5t-94 -58.5v-1q62 -8 110 -54.5
t48 -118.5q0 -93 -72 -149t-172 -56z" />
    <glyph glyph-name="four" unicode="4" horiz-adv-x="545" 
d="M344 -177v177h-312v35l324 442h40v-432h113v-45h-113v-177h-52zM92 45h252v343z" />
    <glyph glyph-name="five" unicode="5" horiz-adv-x="406" 
d="M108 -188q-29 0 -59 5l9 44q28 -4 55 -4q80 0 138 49.5t58 127.5q0 84 -50.5 123t-136.5 39q-21 0 -51 -2l20 283h262v-43h-215l-13 -194h9q109 0 169 -55t60 -148q0 -96 -71.5 -160.5t-183.5 -64.5z" />
    <glyph glyph-name="six" unicode="6" horiz-adv-x="496" 
d="M254 -11q-54 0 -95.5 24.5t-64.5 65t-34.5 87.5t-11.5 99q0 186 100 299.5t278 113.5l10 -44q-143 0 -229.5 -80t-100.5 -222q60 56 154 56q90 0 140.5 -53t50.5 -142q0 -85 -53.5 -144.5t-143.5 -59.5zM256 34q66 0 103.5 46t37.5 108q0 73 -35.5 114t-106.5 41
q-87 0 -152 -54q0 -3 -0.5 -15t-0.5 -14q-2 -97 36 -161.5t118 -64.5z" />
    <glyph glyph-name="seven" unicode="7" horiz-adv-x="434" 
d="M101 -197l-44 21l282 607h-324v46h379v-39z" />
    <glyph glyph-name="eight" unicode="8" horiz-adv-x="502" 
d="M250 -11q-88 0 -138.5 49.5t-50.5 120.5q0 105 146 191q-67 41 -98 80.5t-31 88.5q0 68 50 113t122 45q80 0 127.5 -44t47.5 -111q0 -49 -33.5 -88.5t-101.5 -79.5q75 -44 112.5 -90t37.5 -101q0 -78 -53 -126t-137 -48zM252 35q62 0 98 37t36 91q0 83 -142 164
q-66 -42 -98 -81t-32 -83q0 -54 38 -91t100 -37zM252 378q61 37 90.5 70t29.5 71q0 48 -32.5 80.5t-87.5 32.5q-54 0 -87.5 -32t-33.5 -80q0 -38 29 -71.5t92 -70.5z" />
    <glyph glyph-name="nine" unicode="9" horiz-adv-x="497" 
d="M58 -187l-9 43q142 0 233.5 75t106.5 213q-67 -54 -154 -54q-89 0 -139.5 54.5t-50.5 141.5q0 84 55 143t144 59q55 0 96 -24.5t63.5 -65.5t33 -87.5t10.5 -98.5q0 -183 -103 -291t-286 -108zM240 135q91 0 152 53q0 2 0.5 14t0.5 14q2 97 -35.5 162t-115.5 65
q-63 0 -103 -44.5t-40 -110.5q0 -71 35.5 -112t105.5 -41z" />
    <glyph glyph-name="colon" unicode=":" horiz-adv-x="193" 
d="M96 -9q-18 0 -31.5 14t-13.5 33t13.5 32.5t31.5 13.5q19 0 32 -13.5t13 -32.5t-13 -33t-32 -14zM96 393q-18 0 -31.5 13.5t-13.5 32.5t13.5 32.5t31.5 13.5q19 0 32 -13.5t13 -32.5t-13 -32.5t-32 -13.5z" />
    <glyph glyph-name="semicolon" unicode=";" horiz-adv-x="200" 
d="M49 -120q39 51 39 93q0 13 -16 32t-16 36q0 18 12.5 30t29.5 12q20 0 34 -15.5t14 -40.5q0 -36 -17.5 -77t-41.5 -70h-38zM99 393q-19 0 -32 13.5t-13 32.5t13 32.5t32 13.5t32 -13.5t13 -32.5t-13 -32.5t-32 -13.5z" />
    <glyph glyph-name="less" unicode="&#x3c;" horiz-adv-x="350" 
d="M274 30l-247 216l247 218l31 -32l-210 -184l210 -184z" />
    <glyph glyph-name="equal" unicode="=" horiz-adv-x="456" 
d="M35 167v45h385v-45h-385zM35 321v46h385v-46h-385z" />
    <glyph glyph-name="greater" unicode="&#x3e;" horiz-adv-x="350" 
d="M75 30l-30 32l210 184l-210 184l30 34l247 -216z" />
    <glyph glyph-name="question" unicode="?" horiz-adv-x="390" 
d="M113 177v66q0 45 17.5 75.5t61.5 57.5q44 28 67.5 57t23.5 78q0 120 -135 120q-44 0 -81 -20l-20 41q47 25 105 25q89 0 137 -42.5t48 -120.5q0 -105 -112 -173q-36 -23 -49.5 -46t-13.5 -58v-60h-49zM139 -8q-17 0 -30 13t-13 31t13 30.5t30 12.5t29.5 -12.5t12.5 -30.5
t-12.5 -31t-29.5 -13z" />
    <glyph glyph-name="at" unicode="@" horiz-adv-x="751" 
d="M363 -86q-146 0 -233.5 94t-87.5 232q0 153 104 263t253 110q142 0 227 -88.5t85 -206.5q0 -91 -48.5 -162.5t-118.5 -71.5q-45 0 -71 32.5t-26 82.5q0 13 2 25h-2q-23 -61 -61.5 -100.5t-85.5 -39.5q-41 0 -64.5 34t-23.5 80q0 102 58 183t150 81q44 0 106 -23l-26 -125
q-13 -67 -13 -105q0 -35 16.5 -59t43.5 -24q51 0 86 58t35 129q0 114 -75.5 186.5t-194.5 72.5q-122 0 -215 -97.5t-93 -232.5q0 -123 76 -204.5t204 -81.5q90 0 152 30l17 -37q-72 -35 -176 -35zM311 129q30 0 57.5 26.5t47.5 70t33 84t23 83.5l4 18q-29 13 -61 13
q-63 0 -107 -67t-44 -152q0 -29 11.5 -52.5t35.5 -23.5z" />
    <glyph glyph-name="A" unicode="A" horiz-adv-x="608" 
d="M22 0l254 666h56l254 -666h-58l-68 180h-316l-67 -180h-55zM162 227h280l-140 374z" />
    <glyph glyph-name="B" unicode="B" horiz-adv-x="557" 
d="M100 0v666h152q217 0 217 -164q0 -58 -33 -96.5t-89 -51.5v-2q67 -12 109.5 -55.5t42.5 -111.5q0 -185 -247 -185h-152zM154 47h97q98 0 145 33t47 104q0 69 -47 106.5t-142 37.5h-100v-281zM154 374h93q167 0 167 125q0 62 -40.5 91t-125.5 29h-94v-245z" />
    <glyph glyph-name="C" unicode="C" horiz-adv-x="610" 
d="M373 -11q-145 0 -232 101t-87 244q0 142 88 242.5t233 100.5q104 0 178 -49l-28 -42q-64 45 -152 45q-120 0 -191 -86t-71 -209q0 -125 71 -212.5t193 -87.5q99 0 167 58l27 -39q-73 -66 -196 -66z" />
    <glyph glyph-name="D" unicode="D" horiz-adv-x="667" 
d="M100 0v666h144q180 0 275.5 -86.5t95.5 -240.5q0 -156 -96.5 -247.5t-276.5 -91.5h-142zM155 46h91q150 0 231 74.5t81 216.5q0 141 -80.5 212t-235.5 71h-87v-574z" />
    <glyph glyph-name="E" unicode="E" horiz-adv-x="493" 
d="M100 0v666h327v-47h-272v-240h239v-47h-239v-285h279v-47h-334z" />
    <glyph glyph-name="F" unicode="F" horiz-adv-x="482" 
d="M100 0v666h337v-47h-282v-240h245v-47h-245v-332h-55z" />
    <glyph glyph-name="G" unicode="G" horiz-adv-x="701" 
d="M376 -11q-146 0 -234 101t-88 244q0 92 38 169.5t113 125.5t174 48q120 0 199 -59l-30 -41q-69 54 -171 54q-125 0 -195.5 -86t-70.5 -209q0 -124 71 -212t196 -88q122 0 187 50v205h-154v47h208v-279q-83 -70 -243 -70z" />
    <glyph glyph-name="H" unicode="H" horiz-adv-x="716" 
d="M100 0v666h55v-290h406v290h55v-666h-55v329h-406v-329h-55z" />
    <glyph glyph-name="I" unicode="I" horiz-adv-x="261" 
d="M103 0v666h55v-666h-55z" />
    <glyph glyph-name="J" unicode="J" horiz-adv-x="262" 
d="M32 -185q-32 0 -46 8l9 47q12 -6 35 -6q80 0 80 127v675h55v-685q0 -80 -34 -123t-99 -43z" />
    <glyph glyph-name="K" unicode="K" horiz-adv-x="545" 
d="M456 0l-292 347l276 319h66l-276 -316l296 -350h-70zM100 0v666h54v-666h-54z" />
    <glyph glyph-name="L" unicode="L" horiz-adv-x="458" 
d="M100 0v666h55v-619h267v-47h-322z" />
    <glyph glyph-name="M" unicode="M" horiz-adv-x="844" 
d="M60 0l90 666h52l219 -600l221 600h53l89 -666h-55l-74 567l-207 -567h-55l-210 566l-71 -566h-52z" />
    <glyph glyph-name="N" unicode="N" horiz-adv-x="701" 
d="M99 0v666h54l397 -575v575h52v-666h-51l-401 579v-579h-51z" />
    <glyph glyph-name="O" unicode="O" horiz-adv-x="750" 
d="M375 -11q-145 0 -233 100t-88 243q0 144 88 244.5t233 100.5q144 0 232.5 -100t88.5 -243t-88 -244t-233 -101zM375 35q120 0 192 86.5t72 210.5q0 125 -72 212t-192 87t-192 -86.5t-72 -210.5q0 -125 71.5 -212t192.5 -87z" />
    <glyph glyph-name="P" unicode="P" horiz-adv-x="521" 
d="M100 0v666h145q106 0 167 -49.5t61 -138.5q0 -91 -61 -143t-173 -52h-84v-283h-55zM155 330h83q179 0 179 146q0 66 -43 104.5t-134 38.5h-85v-289z" />
    <glyph glyph-name="Q" unicode="Q" horiz-adv-x="750" 
d="M614 -157q-69 0 -125.5 34t-119.5 112q-142 2 -228.5 101.5t-86.5 241.5q0 144 88 244.5t233 100.5q144 0 232.5 -100t88.5 -243q0 -129 -72 -225t-193 -115q44 -55 85.5 -80.5t98.5 -25.5q50 0 80 26l22 -39q-32 -32 -103 -32zM375 35q120 0 192 86.5t72 210.5
q0 125 -72 212t-192 87t-192 -86.5t-72 -210.5q0 -125 71.5 -212t192.5 -87z" />
    <glyph glyph-name="R" unicode="R" horiz-adv-x="550" 
d="M100 0v666h157q103 0 160 -44t57 -127q0 -80 -53.5 -123t-143.5 -46h-8v-1q18 -10 65 -73l185 -252h-66l-163 224q-48 67 -67.5 82.5t-49.5 15.5h-18v-322h-55zM155 368h100q163 0 163 126q0 125 -167 125h-96v-251z" />
    <glyph glyph-name="S" unicode="S" horiz-adv-x="490" 
d="M231 -11q-114 0 -187 67l30 38q66 -59 160 -59q66 0 108 37t42 91q0 25 -10 47t-22 36.5t-38 32t-41 25.5t-48 25q-39 20 -60.5 33.5t-48 36t-38 51.5t-11.5 66q0 75 53 118t132 43q100 0 169 -52l-27 -40q-63 46 -143 46q-57 0 -93.5 -30.5t-36.5 -81.5q0 -27 9 -48
t30.5 -39t38.5 -28t53 -29q38 -19 54 -27.5t47.5 -30t46 -40t27 -48t12.5 -64.5q0 -78 -57.5 -127t-150.5 -49z" />
    <glyph glyph-name="T" unicode="T" horiz-adv-x="480" 
d="M213 0v619h-192v47h438v-47h-191v-619h-55z" />
    <glyph glyph-name="U" unicode="U" horiz-adv-x="681" 
d="M342 -11q-127 0 -187.5 69t-60.5 192v416h55v-410q0 -219 195 -219q95 0 143 56.5t48 155.5v417h52v-414q0 -125 -60.5 -194t-184.5 -69z" />
    <glyph glyph-name="V" unicode="V" horiz-adv-x="600" 
d="M274 0l-253 666h59l223 -599l221 599h55l-249 -666h-56z" />
    <glyph glyph-name="W" unicode="W" horiz-adv-x="862" 
d="M206 0l-181 666h59l150 -579l172 579h56l169 -575l152 575h54l-181 -666h-51l-173 587l-176 -587h-50z" />
    <glyph glyph-name="X" unicode="X" horiz-adv-x="548" 
d="M28 0l213 345l-201 321h63l172 -275l166 275h60l-198 -321l217 -345h-63l-188 299l-181 -299h-60z" />
    <glyph glyph-name="Y" unicode="Y" horiz-adv-x="537" 
d="M243 0v251l-223 415h62l189 -360h2l189 360h56l-221 -415v-251h-54z" />
    <glyph glyph-name="Z" unicode="Z" horiz-adv-x="557" 
d="M46 0v42l384 578h-365v46h430v-37l-390 -583h403v-46h-462z" />
    <glyph glyph-name="bracketleft" unicode="[" horiz-adv-x="295" 
d="M85 -161v881h184v-42h-133v-797h133v-42h-184z" />
    <glyph glyph-name="backslash" unicode="\" horiz-adv-x="385" 
d="M326 -161l-317 881h50l318 -881h-51z" />
    <glyph glyph-name="bracketright" unicode="]" horiz-adv-x="295" 
d="M26 -161v42h133v797h-133v42h184v-881h-184z" />
    <glyph glyph-name="asciicircum" unicode="^" horiz-adv-x="577" 
d="M63 288l205 378h40l205 -378h-49l-176 322l-175 -322h-50z" />
    <glyph glyph-name="underscore" unicode="_" horiz-adv-x="381" 
d="M-1 -150v44h383v-44h-383z" />
    <glyph glyph-name="grave" unicode="`" horiz-adv-x="500" 
d="M291 540l-129 122h78l97 -122h-46z" />
    <glyph glyph-name="a" unicode="a" horiz-adv-x="458" 
d="M181 -11q-59 0 -96 34t-37 89q0 46 23 79.5t62 50.5t80.5 25t86.5 8h22v54q0 58 -25.5 85.5t-79.5 27.5q-69 0 -124 -51l-28 36q64 61 156 61q153 0 153 -152v-240q0 -63 10 -96h-52q-5 25 -7 60q-25 -33 -63.5 -52t-80.5 -19zM188 34q78 0 134 72v128h-22
q-88 0 -143 -28.5t-55 -91.5q0 -37 26 -58.5t60 -21.5z" />
    <glyph glyph-name="b" unicode="b" horiz-adv-x="508" 
d="M229 -11q-89 0 -143 36v695h52v-287q48 55 125 55q98 0 150 -69t52 -179q0 -104 -65 -177.5t-171 -73.5zM231 34q85 0 132 61t47 143q0 87 -37.5 145t-118.5 58q-30 0 -62.5 -15.5t-53.5 -38.5v-334q38 -19 93 -19z" />
    <glyph glyph-name="c" unicode="c" horiz-adv-x="433" 
d="M248 -11q-97 0 -151 73.5t-54 176.5q0 112 58.5 180.5t151.5 68.5q85 0 142 -50l-27 -38q-50 43 -116 43q-76 0 -115 -57t-39 -145q0 -87 39 -147t114 -60q74 0 122 43l23 -39q-55 -49 -148 -49z" />
    <glyph glyph-name="d" unicode="d" horiz-adv-x="510" 
d="M240 -11q-94 0 -145.5 68.5t-51.5 180.5q0 106 58.5 178t154.5 72q74 0 118 -41v273h52v-630q0 -52 11 -90h-53q-7 28 -7 55q-52 -66 -137 -66zM249 36q33 0 67.5 17.5t57.5 47.5v298q-46 44 -115 44q-77 0 -119 -59t-42 -144q0 -89 36.5 -146.5t114.5 -57.5z" />
    <glyph glyph-name="e" unicode="e" horiz-adv-x="477" 
d="M257 -11q-104 0 -159 72t-55 182q0 104 56 174.5t149 70.5q90 0 138.5 -65t40.5 -169h-329v-11q1 -90 41 -149.5t120 -59.5q79 0 138 45l22 -41q-67 -49 -162 -49zM101 297h274q-1 60 -33 103t-96 43q-60 0 -97 -40.5t-48 -105.5z" />
    <glyph glyph-name="f" unicode="f" horiz-adv-x="300" 
d="M104 0v435h-83v42h83v80q0 83 41.5 128.5t119.5 45.5q45 0 73 -13l-14 -46q-24 13 -61 13q-108 0 -108 -132v-76h124v-42h-124v-435h-51z" />
    <glyph glyph-name="g" unicode="g" horiz-adv-x="490" 
d="M231 -233q-82 0 -131 34t-49 97q0 42 23.5 76t60.5 52q-45 19 -45 67q0 23 14 43t35 29q-85 47 -85 150q0 75 50.5 124t131.5 49q36 0 69 -11h150v-42h-85q48 -48 48 -119q0 -76 -50.5 -125t-132.5 -49q-31 0 -55 7q-40 -14 -40 -47q0 -13 7.5 -22t23 -13.5t31 -6
t38.5 -2.5q105 -5 144 -20q75 -29 75 -116q0 -70 -66.5 -112.5t-161.5 -42.5zM233 -190q76 0 124.5 30t48.5 79q0 20 -5 35.5t-16.5 24.5t-22 15t-29.5 9t-30.5 4t-34.5 2q-58 2 -91 6q-75 -37 -75 -112q0 -42 33.5 -67.5t97.5 -25.5zM236 186q59 0 94 37t35 92
q0 56 -35.5 93t-94.5 37q-58 0 -93 -37t-35 -92q0 -56 35 -93t94 -37z" />
    <glyph glyph-name="h" unicode="h" horiz-adv-x="518" 
d="M86 0v720h52v-319q23 33 64 60t94 27q71 0 105 -40.5t34 -109.5v-338h-52v327q0 114 -98 114q-47 0 -87.5 -31.5t-59.5 -62.5v-347h-52z" />
    <glyph glyph-name="i" unicode="i" horiz-adv-x="235" 
d="M117 577q-16 0 -27.5 12t-11.5 29t11.5 28.5t27.5 11.5q17 0 28.5 -11.5t11.5 -28.5t-11.5 -29t-28.5 -12zM91 0v477h53v-477h-53z" />
    <glyph glyph-name="j" unicode="j" horiz-adv-x="229" 
d="M17 -229q-31 0 -43 7l9 44q12 -6 32 -6q41 0 57.5 31t16.5 91v539h52v-550q0 -72 -30 -114t-94 -42zM114 577q-16 0 -28 12t-12 29t12 28.5t28 11.5q17 0 28.5 -11.5t11.5 -28.5t-11.5 -29t-28.5 -12z" />
    <glyph glyph-name="k" unicode="k" horiz-adv-x="450" 
d="M363 0l-220 268l209 209h65l-211 -209l222 -268h-65zM86 0v720h52v-720h-52z" />
    <glyph glyph-name="l" unicode="l" horiz-adv-x="230" 
d="M89 0v720h52v-720h-52z" />
    <glyph glyph-name="m" unicode="m" horiz-adv-x="782" 
d="M88 0v477h52v-75q60 86 149 86q101 0 122 -89q66 89 156 89q131 0 131 -150v-338h-52v327q0 114 -90 114q-77 0 -137 -87v-354h-52v327q0 114 -89 114q-45 0 -82.5 -31.5t-55.5 -62.5v-347h-52z" />
    <glyph glyph-name="n" unicode="n" horiz-adv-x="520" 
d="M88 0v477h52v-76q63 87 158 87q71 0 104.5 -40.5t33.5 -109.5v-338h-52v327q0 114 -97 114q-42 0 -82 -28t-65 -66v-347h-52z" />
    <glyph glyph-name="o" unicode="o" horiz-adv-x="517" 
d="M257 -11q-105 0 -160 74.5t-55 174.5q0 47 12.5 90t37.5 79.5t67.5 58.5t96.5 22q105 0 162 -74.5t57 -173.5q0 -100 -56.5 -175.5t-161.5 -75.5zM258 34q78 0 120 58.5t42 145.5q0 85 -44 145t-122 60q-77 0 -117 -58.5t-40 -144.5q0 -87 42 -146.5t119 -59.5z" />
    <glyph glyph-name="p" unicode="p" horiz-adv-x="514" 
d="M88 -219v696h52v-52q50 63 135 63q93 0 144.5 -68.5t51.5 -179.5q0 -106 -58 -178.5t-155 -72.5q-73 0 -118 41v-249h-52zM255 34q77 0 119 59.5t42 144.5q0 88 -37 145.5t-113 57.5q-39 0 -73 -20t-53 -45v-298q44 -44 115 -44z" />
    <glyph glyph-name="q" unicode="q" horiz-adv-x="510" 
d="M370 -217v261q-20 -23 -53.5 -39t-70.5 -16q-98 0 -150.5 69.5t-52.5 178.5q0 104 65.5 177.5t170.5 73.5q89 0 143 -35v-670h-52zM254 36q34 0 67 17.5t49 37.5v332q-40 20 -93 20q-85 0 -132 -61t-47 -143q0 -87 38 -145t118 -58z" />
    <glyph glyph-name="r" unicode="r" horiz-adv-x="327" 
d="M88 0v477h52v-83q18 36 50.5 65t77.5 29q25 0 46 -8l-13 -49q-19 7 -39 7q-23 0 -44.5 -12t-37 -31t-24.5 -34t-16 -29v-332h-52z" />
    <glyph glyph-name="s" unicode="s" horiz-adv-x="393" 
d="M186 -12q-87 0 -145 46l23 40q19 -15 53 -27.5t70 -12.5q49 0 78 22t29 60q0 36 -25.5 56.5t-84.5 47.5q-66 28 -99 58.5t-33 84.5q0 55 38 90t103 35q81 0 135 -44l-26 -38q-47 37 -110 37q-42 0 -65.5 -20.5t-23.5 -56.5q0 -20 7.5 -35t24.5 -27.5t30.5 -19t40.5 -18.5
q69 -30 104.5 -60.5t35.5 -83.5q0 -61 -43.5 -97.5t-116.5 -36.5z" />
    <glyph glyph-name="t" unicode="t" horiz-adv-x="330" 
d="M211 -11q-104 0 -104 118v328h-80v42h80v136h52v-136h123v-42h-123v-325q0 -39 13.5 -57.5t44.5 -18.5q38 0 66 22l20 -39q-39 -28 -92 -28z" />
    <glyph glyph-name="u" unicode="u" horiz-adv-x="519" 
d="M222 -11q-71 0 -105 41t-34 110v337h52v-326q0 -115 98 -115q47 0 88 32.5t58 62.5v346h52v-385q0 -60 9 -92h-53q-7 37 -7 78q-22 -34 -63 -61.5t-95 -27.5z" />
    <glyph glyph-name="v" unicode="v" horiz-adv-x="442" 
d="M198 0l-181 477h56l149 -411l148 411h54l-178 -477h-48z" />
    <glyph glyph-name="w" unicode="w" horiz-adv-x="683" 
d="M163 0l-144 477h56l116 -397l125 397h51l125 -398l117 398h52l-144 -477h-48l-129 402l-129 -402h-48z" />
    <glyph glyph-name="x" unicode="x" horiz-adv-x="442" 
d="M23 0l168 248l-158 229h60q124 -183 128 -188l124 188h56l-154 -226l172 -251h-59l-144 210l-137 -210h-56z" />
    <glyph glyph-name="y" unicode="y" horiz-adv-x="450" 
d="M53 -230q-23 0 -39 4l7 44q21 -3 33 -3q48 0 74.5 28.5t50.5 91.5l24 68l-179 474h57l150 -409l147 409h55l-205 -546q-30 -81 -67 -121t-108 -40z" />
    <glyph glyph-name="z" unicode="z" horiz-adv-x="410" 
d="M43 0v37l255 397h-240v43h303v-39l-257 -395h262v-43h-323z" />
    <glyph glyph-name="braceleft" unicode="{" horiz-adv-x="343" 
d="M239 -161q-44 0 -72 28.5t-28 79.5v206q0 50 -31.5 80t-78.5 31v42q46 1 78 31t32 80v196q0 50 28 78.5t72 28.5h77v-42h-67q-59 0 -59 -80v-189q0 -51 -29 -81.5t-74 -40.5v-1q45 -11 74 -42.5t29 -83.5v-202q0 -77 58 -77h68v-42h-77z" />
    <glyph glyph-name="bar" unicode="|" horiz-adv-x="282" 
d="M121 -250v1000h40v-1000h-40z" />
    <glyph glyph-name="braceright" unicode="}" horiz-adv-x="343" 
d="M26 -161v42h68q59 0 59 80v201q0 50 29 81t74 40v2q-45 10 -74 42t-29 83v191q0 38 -13 57.5t-46 19.5h-68v42h77q44 0 72.5 -28.5t28.5 -79.5v-195q0 -49 31.5 -79.5t78.5 -31.5v-42q-47 -1 -78.5 -31t-31.5 -80v-207q0 -50 -28 -78.5t-72 -28.5h-78z" />
    <glyph glyph-name="asciitilde" unicode="~" horiz-adv-x="587" 
d="M403 183q-45 0 -84 18.5t-73.5 37t-67.5 18.5q-49 0 -94 -43l-26 33q56 56 124 56q49 0 114.5 -36.5t110.5 -36.5q49 0 97 43l25 -33q-57 -57 -126 -57z" />
    <glyph glyph-name="uni00A0" unicode="&#xa0;" horiz-adv-x="232" 
 />
    <glyph glyph-name="exclamdown" unicode="&#xa1;" horiz-adv-x="260" 
d="M130 401q-17 0 -29.5 13t-12.5 30q0 19 12.5 31.5t29.5 12.5q18 0 30.5 -13t12.5 -31q0 -17 -13 -30t-30 -13zM99 -186l11 486h40l12 -486h-63z" />
    <glyph glyph-name="cent" unicode="&#xa2;" horiz-adv-x="432" 
d="M221 -123v114q-85 11 -131 81.5t-46 166.5q0 101 48.5 168t128.5 78v106h50v-103q72 -5 124 -50l-26 -38q-50 43 -116 43q-76 0 -115 -57t-39 -145q0 -87 39 -147t114 -60q74 0 122 43l23 -39q-50 -42 -126 -48v-113h-50z" />
    <glyph glyph-name="sterling" unicode="&#xa3;" horiz-adv-x="454" 
d="M56 0v36q54 33 82 89t28 117q0 37 -4 66h-96v44h90q-12 113 -12 149q0 80 40.5 128t121.5 48q69 0 114 -34l-24 -40q-41 28 -97 28q-52 0 -77 -35.5t-25 -94.5q0 -29 12 -149h152v-44h-147q3 -63 3 -64q0 -68 -27 -122t-59 -77h272v-45h-347z" />
    <glyph glyph-name="currency" unicode="&#xa4;" horiz-adv-x="529" 
d="M92 -14l-35 27l78 100q-49 51 -49 125q0 76 53 129l-80 103l35 27l79 -105q43 24 94 24q49 0 86 -20l78 101l35 -27l-77 -98q61 -53 61 -134q0 -79 -57 -131l73 -94l-35 -27l-73 96q-41 -22 -91 -22q-55 0 -98 27zM267 102q58 0 96 39t38 97t-38 97.5t-96 39.5
q-57 0 -95 -39.5t-38 -97.5q0 -57 38 -96.5t95 -39.5z" />
    <glyph glyph-name="yen" unicode="&#xa5;" horiz-adv-x="502" 
d="M226 0v100h-159v43h159v82h-159v44h150l-214 397h62l189 -360h2l190 360h55l-212 -397h151v-44h-160v-82h160v-43h-160v-100h-54z" />
    <glyph glyph-name="brokenbar" unicode="&#xa6;" horiz-adv-x="168" 
d="M63 -250v378h40v-378h-40zM63 382v368h40v-368h-40z" />
    <glyph glyph-name="section" unicode="&#xa7;" horiz-adv-x="459" 
d="M208 -152q-66 0 -108 34l24 39q35 -27 85 -27q43 0 66.5 27t23.5 68q0 31 -23.5 69t-56.5 75t-66 75t-56.5 81.5t-23.5 83.5q0 74 64 121q-30 46 -30 92q0 65 41 105t100 40q66 0 109 -35l-26 -40q-34 30 -84 30q-43 0 -66.5 -28.5t-23.5 -67.5q0 -38 35.5 -88.5t78 -93
t78 -98.5t35.5 -104q0 -67 -64 -123q30 -49 30 -90q0 -68 -41 -106.5t-101 -38.5zM294 120q39 37 39 85q0 35 -28.5 78.5t-78 99t-63.5 75.5q-38 -29 -38 -84q0 -34 28 -78t77.5 -100t63.5 -76z" />
    <glyph glyph-name="dieresis" unicode="&#xa8;" horiz-adv-x="500" 
d="M165 543q-16 0 -27.5 12t-11.5 29q0 16 11.5 28t27.5 12q17 0 28.5 -12t11.5 -28q0 -17 -11.5 -29t-28.5 -12zM334 543q-16 0 -27.5 12t-11.5 29q0 16 11.5 28t27.5 12q17 0 29 -12t12 -28q0 -17 -12 -29t-29 -12z" />
    <glyph glyph-name="copyright" unicode="&#xa9;" horiz-adv-x="859" 
d="M436 124q-98 0 -162.5 68.5t-64.5 166.5q0 99 65 167.5t162 68.5q79 0 137 -49l-28 -34q-46 40 -109 40q-79 0 -127 -57t-48 -134q0 -81 51 -137.5t127 -56.5q71 0 125 45l23 -37q-63 -51 -151 -51zM429 -12q-154 0 -261.5 108t-107.5 263t107.5 263.5t261.5 108.5
t262 -108.5t108 -263.5t-108 -263t-262 -108zM429 27q140 0 234 95t94 237t-94 237.5t-234 95.5q-139 0 -232.5 -95.5t-93.5 -237.5t93.5 -237t232.5 -95z" />
    <glyph glyph-name="ordfeminine" unicode="&#xaa;" horiz-adv-x="355" 
d="M142 315q-43 0 -73 27t-30 67q0 44 32 74q47 43 165 43v33q0 78 -70 78q-51 0 -87 -34l-24 31q46 43 112 43q54 0 84 -28.5t30 -83.5v-167q0 -37 8 -75h-46q-3 18 -5 37q-39 -45 -96 -45zM146 355q54 0 90 46v89q-104 0 -135 -35q-15 -18 -15 -45q0 -24 17 -39.5
t43 -15.5z" />
    <glyph glyph-name="guillemotleft" unicode="&#xab;" horiz-adv-x="453" 
d="M187 57l-138 188l138 189h55l-137 -189l137 -188h-55zM349 57l-137 188l137 189h56l-137 -189l137 -188h-56z" />
    <glyph glyph-name="logicalnot" unicode="&#xac;" horiz-adv-x="575" 
d="M473 42v204h-431v46h480v-250h-49z" />
    <glyph glyph-name="uni00AD" unicode="&#xad;" horiz-adv-x="301" 
d="M55 266v46h191v-46h-191z" />
    <glyph glyph-name="registered" unicode="&#xae;" horiz-adv-x="859" 
d="M305 129v464h130q64 0 101.5 -36.5t37.5 -87.5q0 -49 -34.5 -82t-93.5 -37h-8q23 -16 49 -55l122 -166h-59l-120 168q-22 31 -35.5 40.5t-41.5 9.5v-218h-48zM429 -12q-154 0 -261.5 108t-107.5 263t107.5 263.5t261.5 108.5t262 -108.5t108 -263.5t-108 -263t-262 -108z
M429 27q140 0 234 95t94 237t-94 237.5t-234 95.5q-139 0 -232.5 -95.5t-93.5 -237.5t93.5 -237t232.5 -95zM353 386h61q50 0 80 20.5t30 61.5q0 37 -25 60t-73 23h-73v-165z" />
    <glyph glyph-name="macron" unicode="&#xaf;" horiz-adv-x="500" 
d="M116 581v44h267v-44h-267z" />
    <glyph glyph-name="degree" unicode="&#xb0;" horiz-adv-x="345" 
d="M172 424q-52 0 -88 37.5t-36 88.5q0 52 36 89.5t89 37.5t88.5 -37t35.5 -89t-36 -89.5t-89 -37.5zM173 463q36 0 59 25.5t23 62.5t-23 62.5t-59 25.5q-37 0 -60 -25.5t-23 -62.5t23 -62.5t60 -25.5z" />
    <glyph glyph-name="plusminus" unicode="&#xb1;" horiz-adv-x="583" 
d="M268 16v228h-223v44h223v216h50v-215h220v-45h-220v-228h-50zM81 -99v46h424v-46h-424z" />
    <glyph glyph-name="twosuperior" unicode="&#xb2;" horiz-adv-x="306" 
d="M31 342v25q5 5 24 21.5t26.5 23.5t24.5 23t25 25t21 23.5t19.5 25t14 23.5t10.5 24.5t3 22.5q0 27 -17 41t-44 14q-42 0 -81 -33l-24 29q48 42 111 42q50 0 76.5 -23.5t26.5 -64.5q0 -33 -25 -72.5t-51 -66t-71 -65.5h163v-38h-232z" />
    <glyph glyph-name="threesuperior" unicode="&#xb3;" horiz-adv-x="278" 
d="M91 337q-36 0 -63 8l9 37q20 -8 52 -8q44 0 70.5 16t26.5 47q0 62 -116 62v33q41 0 73.5 16.5t32.5 44.5q0 20 -16 30.5t-42 10.5q-40 0 -74 -27l-20 28q42 37 103 37q46 0 71 -19.5t25 -52.5q0 -31 -22 -50.5t-53 -27.5v-1q34 -3 60 -25t26 -58q0 -49 -39 -75t-104 -26z
" />
    <glyph glyph-name="acute" unicode="&#xb4;" horiz-adv-x="500" 
d="M152 540l97 122h78l-130 -122h-45z" />
    <glyph glyph-name="uni00B5" unicode="&#xb5;" horiz-adv-x="531" 
d="M86 -206v683h52v-336q0 -105 91 -105q46 0 87.5 29.5t65.5 64.5v347h52v-388q0 -55 8 -89h-53q-5 25 -7 77q-24 -34 -64.5 -61t-94.5 -27q-60 0 -87 38h-2q4 -39 4 -120v-113h-52z" />
    <glyph glyph-name="paragraph" unicode="&#xb6;" horiz-adv-x="622" 
d="M260 -177v459q-81 0 -136 52.5t-55 138.5t55 139.5t136 53.5h293v-45h-82v-798h-48v798h-114v-798h-49z" />
    <glyph glyph-name="periodcentered" unicode="&#xb7;" horiz-adv-x="190" 
d="M95 244q-18 0 -31.5 14t-13.5 33t13.5 32t31.5 13q19 0 32 -13t13 -32q0 -20 -13 -33.5t-32 -13.5z" />
    <glyph glyph-name="cedilla" unicode="&#xb8;" horiz-adv-x="500" 
d="M212 -215q-38 0 -62 12l10 33q22 -11 51 -11q56 0 56 43q0 42 -73 42l37 99h38l-27 -74q31 -4 50.5 -22t19.5 -44q0 -37 -28.5 -57.5t-71.5 -20.5z" />
    <glyph glyph-name="onesuperior" unicode="&#xb9;" horiz-adv-x="227" 
d="M103 342v284l-74 -23l-11 36l95 27h36v-324h-46z" />
    <glyph glyph-name="ordmasculine" unicode="&#xba;" horiz-adv-x="381" 
d="M189 315q-75 0 -113.5 54t-38.5 127q0 74 38 128t114 54q75 0 115 -54t40 -126q0 -74 -39.5 -128.5t-115.5 -54.5zM191 355q52 0 78 40t26 101q0 60 -27.5 101t-79.5 41q-53 0 -77.5 -39.5t-24.5 -100.5t26 -102t79 -41z" />
    <glyph glyph-name="guillemotright" unicode="&#xbb;" horiz-adv-x="453" 
d="M48 57l136 188l-136 190h55l138 -190l-138 -188h-55zM210 57l137 188l-137 190h56l138 -190l-138 -188h-56z" />
    <glyph glyph-name="onequarter" unicode="&#xbc;" horiz-adv-x="586" 
d="M471 0v72h-172v32l173 220h43v-215h51v-37h-51v-72h-44zM103 342v284l-74 -23l-11 36l95 27h36v-324h-46zM46 0l408 666h45l-408 -666h-45zM351 109h120v154z" />
    <glyph glyph-name="onehalf" unicode="&#xbd;" horiz-adv-x="624" 
d="M349 0v25q96 85 125 121q43 52 43 90q0 56 -61 56q-43 0 -80 -33l-24 29q45 41 111 41q49 0 75.5 -23t26.5 -65q0 -33 -25 -72t-51 -65.5t-70 -66.5h162v-37h-232zM103 342v284l-74 -23l-11 36l95 27h36v-324h-46zM46 0l408 666h45l-408 -666h-45z" />
    <glyph glyph-name="threequarters" unicode="&#xbe;" horiz-adv-x="636" 
d="M91 337q-36 0 -63 8l9 37q20 -8 52 -8q44 0 70.5 16t26.5 47q0 62 -116 62v33q41 0 73.5 16.5t32.5 44.5q0 20 -16 30.5t-42 10.5q-40 0 -74 -27l-20 28q42 37 103 37q46 0 71 -19.5t25 -52.5q0 -31 -22 -50.5t-53 -27.5v-1q34 -3 60 -25t26 -58q0 -49 -39 -75t-104 -26z
M521 0v72h-171v32l173 220h43v-215h50v-37h-50v-72h-45zM97 0l407 666h46l-408 -666h-45zM401 109h121v154z" />
    <glyph glyph-name="questiondown" unicode="&#xbf;" horiz-adv-x="387" 
d="M238 -197q-89 0 -137.5 43t-48.5 120q0 45 20 82t41 54.5t52 37.5q35 22 48.5 45t13.5 58v60h50v-65q0 -45 -18 -75.5t-62 -58.5q-29 -18 -45.5 -32.5t-30.5 -41.5t-14 -61q0 -120 135 -120q47 0 81 21l19 -42q-44 -25 -104 -25zM251 401q-17 0 -30 13t-13 30q0 18 13 31
t30 13t30 -13t13 -31q0 -17 -13 -30t-30 -13z" />
    <glyph glyph-name="Agrave" unicode="&#xc0;" horiz-adv-x="608" 
d="M22 0l254 666h56l254 -666h-58l-68 180h-316l-67 -180h-55zM162 227h280l-140 374zM283 713l-129 122h78l97 -122h-46z" />
    <glyph glyph-name="Aacute" unicode="&#xc1;" horiz-adv-x="608" 
d="M22 0l254 666h56l254 -666h-58l-68 180h-316l-67 -180h-55zM162 227h280l-140 374zM278 713l97 122h78l-130 -122h-45z" />
    <glyph glyph-name="Acircumflex" unicode="&#xc2;" horiz-adv-x="608" 
d="M22 0l254 666h56l254 -666h-58l-68 180h-316l-67 -180h-55zM162 227h280l-140 374zM166 714l119 147h34l119 -147h-49l-88 94l-86 -94h-49z" />
    <glyph glyph-name="Atilde" unicode="&#xc3;" horiz-adv-x="608" 
d="M22 0l254 666h56l254 -666h-58l-68 180h-316l-67 -180h-55zM162 227h280l-140 374zM349 718q-23 0 -52 20.5t-47 20.5q-21 0 -54 -33l-27 27q36 53 85 53q24 0 53 -21t46 -21q28 0 55 34l28 -29q-42 -51 -87 -51z" />
    <glyph glyph-name="Adieresis" unicode="&#xc4;" horiz-adv-x="608" 
d="M22 0l254 666h56l254 -666h-58l-68 180h-316l-67 -180h-55zM162 227h280l-140 374zM217 716q-16 0 -27.5 12t-11.5 29q0 16 11.5 28t27.5 12q17 0 28.5 -11.5t11.5 -28.5t-11.5 -29t-28.5 -12zM386 716q-16 0 -27.5 12t-11.5 29q0 16 11.5 28t27.5 12q17 0 29 -12t12 -28
q0 -17 -12 -29t-29 -12z" />
    <glyph glyph-name="Aring" unicode="&#xc5;" horiz-adv-x="608" 
d="M22 0l254 666h56l254 -666h-58l-68 180h-316l-67 -180h-55zM162 227h280l-140 374zM302 703q-37 0 -63.5 27t-26.5 64q0 38 26.5 65t63.5 27t63.5 -27t26.5 -64q0 -38 -26.5 -65t-63.5 -27zM302 734q25 0 40 18t15 42t-15 42t-40 18t-40 -17.5t-15 -41.5t15 -42.5
t40 -18.5z" />
    <glyph glyph-name="AE" unicode="&#xc6;" horiz-adv-x="796" 
d="M-12 0l385 666h357v-47h-272v-240h239v-47h-239v-285h279v-47h-333v192h-247l-110 -192h-59zM183 239h221v386z" />
    <glyph glyph-name="Ccedilla" unicode="&#xc7;" horiz-adv-x="610" 
d="M322 -215q-38 0 -62 12l10 33q22 -11 51 -11q56 0 56 43q0 42 -73 42l32 87q-129 13 -205.5 111t-76.5 232q0 142 88 242.5t233 100.5q104 0 178 -49l-28 -42q-64 45 -152 45q-120 0 -191 -86t-71 -209q0 -125 71 -212.5t193 -87.5q99 0 167 58l27 -39q-73 -66 -195 -66
l-22 -60q31 -4 50.5 -22t19.5 -44q0 -37 -28.5 -57.5t-71.5 -20.5z" />
    <glyph glyph-name="Egrave" unicode="&#xc8;" horiz-adv-x="493" 
d="M100 0v666h327v-47h-272v-240h239v-47h-239v-285h279v-47h-334zM248 713l-129 122h78l97 -122h-46z" />
    <glyph glyph-name="Eacute" unicode="&#xc9;" horiz-adv-x="493" 
d="M243 713l97 122h78l-130 -122h-45zM100 0v666h327v-47h-272v-240h239v-47h-239v-285h279v-47h-334z" />
    <glyph glyph-name="Ecircumflex" unicode="&#xca;" horiz-adv-x="493" 
d="M132 714l119 147h34l119 -147h-49l-88 94l-86 -94h-49zM100 0v666h327v-47h-272v-240h239v-47h-239v-285h279v-47h-334z" />
    <glyph glyph-name="Edieresis" unicode="&#xcb;" horiz-adv-x="493" 
d="M182 716q-16 0 -27.5 12t-11.5 29q0 16 11.5 28t27.5 12t28 -11.5t12 -28.5t-11.5 -29t-28.5 -12zM351 716q-16 0 -27.5 12t-11.5 29q0 16 11.5 28t27.5 12q17 0 29 -12t12 -28q0 -17 -12 -29t-29 -12zM100 0v666h327v-47h-272v-240h239v-47h-239v-285h279v-47h-334z" />
    <glyph glyph-name="Igrave" unicode="&#xcc;" horiz-adv-x="261" 
d="M103 0v666h55v-666h-55zM111 713l-129 122h78l97 -122h-46z" />
    <glyph glyph-name="Iacute" unicode="&#xcd;" horiz-adv-x="261" 
d="M103 0v666h55v-666h-55zM107 713l97 122h78l-130 -122h-45z" />
    <glyph glyph-name="Icircumflex" unicode="&#xce;" horiz-adv-x="261" 
d="M103 0v666h55v-666h-55zM-4 714l119 147h34l119 -147h-49l-88 94l-86 -94h-49z" />
    <glyph glyph-name="Idieresis" unicode="&#xcf;" horiz-adv-x="261" 
d="M103 0v666h55v-666h-55zM46 716q-16 0 -27.5 12t-11.5 29q0 16 11.5 28t27.5 12t28 -11.5t12 -28.5t-11.5 -29t-28.5 -12zM215 716q-16 0 -27.5 12t-11.5 29q0 16 11.5 28t27.5 12q17 0 29 -12t12 -28q0 -17 -12 -29t-29 -12z" />
    <glyph glyph-name="Eth" unicode="&#xd0;" horiz-adv-x="660" 
d="M105 0v323h-72v43h72v300h145q179 0 274.5 -86.5t95.5 -240.5q0 -156 -96 -247.5t-277 -91.5h-142zM160 46h91q150 0 231.5 75t81.5 216t-80.5 212t-235.5 71h-88v-254h114v-43h-114v-277z" />
    <glyph glyph-name="Ntilde" unicode="&#xd1;" horiz-adv-x="701" 
d="M99 0v666h54l397 -575v575h52v-666h-51l-401 579v-579h-51zM397 718q-24 0 -52.5 20.5t-46.5 20.5q-21 0 -54 -33l-27 27q36 53 85 53q24 0 53 -21t46 -21q28 0 55 34l28 -29q-42 -51 -87 -51z" />
    <glyph glyph-name="Ograve" unicode="&#xd2;" horiz-adv-x="750" 
d="M375 -11q-145 0 -233 100t-88 243q0 144 88 244.5t233 100.5q144 0 232.5 -100t88.5 -243t-88 -244t-233 -101zM375 35q120 0 192 86.5t72 210.5q0 125 -72 212t-192 87t-192 -86.5t-72 -210.5q0 -125 71.5 -212t192.5 -87zM354 713l-129 122h78l97 -122h-46z" />
    <glyph glyph-name="Oacute" unicode="&#xd3;" horiz-adv-x="750" 
d="M350 713l97 122h78l-130 -122h-45zM375 -11q-145 0 -233 100t-88 243q0 144 88 244.5t233 100.5q144 0 232.5 -100t88.5 -243t-88 -244t-233 -101zM375 35q120 0 192 86.5t72 210.5q0 125 -72 212t-192 87t-192 -86.5t-72 -210.5q0 -125 71.5 -212t192.5 -87z" />
    <glyph glyph-name="Ocircumflex" unicode="&#xd4;" horiz-adv-x="750" 
d="M239 714l119 147h34l119 -147h-49l-88 94l-86 -94h-49zM375 -11q-145 0 -233 100t-88 243q0 144 88 244.5t233 100.5q144 0 232.5 -100t88.5 -243t-88 -244t-233 -101zM375 35q120 0 192 86.5t72 210.5q0 125 -72 212t-192 87t-192 -86.5t-72 -210.5q0 -125 71.5 -212
t192.5 -87z" />
    <glyph glyph-name="Otilde" unicode="&#xd5;" horiz-adv-x="750" 
d="M375 -11q-145 0 -233 100t-88 243q0 144 88 244.5t233 100.5q144 0 232.5 -100t88.5 -243t-88 -244t-233 -101zM375 35q120 0 192 86.5t72 210.5q0 125 -72 212t-192 87t-192 -86.5t-72 -210.5q0 -125 71.5 -212t192.5 -87zM421 718q-23 0 -52 20.5t-47 20.5
q-21 0 -54 -33l-27 27q36 53 85 53q24 0 53 -21t46 -21q28 0 55 34l28 -29q-42 -51 -87 -51z" />
    <glyph glyph-name="Odieresis" unicode="&#xd6;" horiz-adv-x="750" 
d="M289 716q-16 0 -27.5 12t-11.5 29q0 16 11.5 28t27.5 12q17 0 28.5 -11.5t11.5 -28.5t-11.5 -29t-28.5 -12zM458 716q-16 0 -27.5 12t-11.5 29q0 16 11.5 28t27.5 12q17 0 29 -12t12 -28q0 -17 -12 -29t-29 -12zM375 -11q-145 0 -233 100t-88 243q0 144 88 244.5
t233 100.5q144 0 232.5 -100t88.5 -243t-88 -244t-233 -101zM375 35q120 0 192 86.5t72 210.5q0 125 -72 212t-192 87t-192 -86.5t-72 -210.5q0 -125 71.5 -212t192.5 -87z" />
    <glyph glyph-name="multiply" unicode="&#xd7;" horiz-adv-x="503" 
d="M114 99l-32 33l134 133l-134 135l34 34l135 -133l134 134l32 -32l-134 -135l139 -138l-35 -34l-139 137z" />
    <glyph glyph-name="Oslash" unicode="&#xd8;" horiz-adv-x="750" 
d="M156 -62l-32 23l59 90q-61 47 -95 121t-34 160q0 144 88 244.5t233 100.5q105 0 184 -57l64 97l33 -24l-66 -99q51 -47 78.5 -115t27.5 -145q0 -143 -88 -244t-233 -101q-90 0 -158 40zM212 93l319 484q-67 54 -156 54q-120 0 -192 -86.5t-72 -210.5q0 -73 26.5 -136.5
t74.5 -104.5zM375 35q120 0 192 86.5t72 210.5q0 134 -79 218l-317 -479q58 -36 132 -36z" />
    <glyph glyph-name="Ugrave" unicode="&#xd9;" horiz-adv-x="681" 
d="M342 -11q-127 0 -187.5 69t-60.5 192v416h55v-410q0 -219 195 -219q95 0 143 56.5t48 155.5v417h52v-414q0 -125 -60.5 -194t-184.5 -69zM320 713l-129 122h78l97 -122h-46z" />
    <glyph glyph-name="Uacute" unicode="&#xda;" horiz-adv-x="681" 
d="M316 713l97 122h78l-130 -122h-45zM342 -11q-127 0 -187.5 69t-60.5 192v416h55v-410q0 -219 195 -219q95 0 143 56.5t48 155.5v417h52v-414q0 -125 -60.5 -194t-184.5 -69z" />
    <glyph glyph-name="Ucircumflex" unicode="&#xdb;" horiz-adv-x="681" 
d="M204 714l119 147h34l119 -147h-49l-88 94l-86 -94h-49zM342 -11q-127 0 -187.5 69t-60.5 192v416h55v-410q0 -219 195 -219q95 0 143 56.5t48 155.5v417h52v-414q0 -125 -60.5 -194t-184.5 -69z" />
    <glyph glyph-name="Udieresis" unicode="&#xdc;" horiz-adv-x="681" 
d="M255 716q-16 0 -27.5 12t-11.5 29q0 16 11.5 28t27.5 12q17 0 28.5 -11.5t11.5 -28.5t-11.5 -29t-28.5 -12zM424 716q-16 0 -27.5 12t-11.5 29q0 16 11.5 28t27.5 12q17 0 29 -12t12 -28q0 -17 -12 -29t-29 -12zM342 -11q-127 0 -187.5 69t-60.5 192v416h55v-410
q0 -219 195 -219q95 0 143 56.5t48 155.5v417h52v-414q0 -125 -60.5 -194t-184.5 -69z" />
    <glyph glyph-name="Yacute" unicode="&#xdd;" horiz-adv-x="537" 
d="M243 0v251l-223 415h62l189 -360h2l189 360h56l-221 -415v-251h-54zM244 713l97 122h78l-130 -122h-45z" />
    <glyph glyph-name="Thorn" unicode="&#xde;" horiz-adv-x="514" 
d="M100 0v666h55v-119h90q106 0 167 -49.5t61 -138.5q0 -91 -61 -143t-173 -52h-84v-164h-55zM155 211h83q179 0 179 147q0 65 -43 103.5t-134 38.5h-85v-289z" />
    <glyph glyph-name="germandbls" unicode="&#xdf;" horiz-adv-x="532" 
d="M325 -12q-73 0 -118 36l24 41q40 -31 96 -31q45 0 75 22t30 61q0 19 -6.5 33.5t-23.5 28t-31 22t-44 24.5q-25 13 -39.5 22.5t-32 24.5t-25.5 33.5t-8 41.5q0 32 16.5 58t32.5 38t50 34q37 23 53 45.5t16 59.5q0 46 -29 74.5t-83 28.5q-60 0 -98 -48t-38 -142v-495h-52
v495q0 114 53.5 175t136.5 61q76 0 119 -42t43 -103q0 -51 -24.5 -83.5t-67.5 -59.5q-43 -25 -60.5 -43.5t-17.5 -47.5q0 -28 19.5 -45t74.5 -47q28 -15 44 -25t36 -27.5t29.5 -38.5t9.5 -47q0 -61 -44.5 -97.5t-115.5 -36.5z" />
    <glyph glyph-name="agrave" unicode="&#xe0;" horiz-adv-x="458" 
d="M181 -11q-59 0 -96 34t-37 89q0 46 23 79.5t62 50.5t80.5 25t86.5 8h22v54q0 58 -25.5 85.5t-79.5 27.5q-69 0 -124 -51l-28 36q64 61 156 61q153 0 153 -152v-240q0 -63 10 -96h-52q-5 25 -7 60q-25 -33 -63.5 -52t-80.5 -19zM188 34q78 0 134 72v128h-22
q-88 0 -143 -28.5t-55 -91.5q0 -37 26 -58.5t60 -21.5zM201 540l-129 122h78l97 -122h-46z" />
    <glyph glyph-name="aacute" unicode="&#xe1;" horiz-adv-x="458" 
d="M181 -11q-59 0 -96 34t-37 89q0 46 23 79.5t62 50.5t80.5 25t86.5 8h22v54q0 58 -25.5 85.5t-79.5 27.5q-69 0 -124 -51l-28 36q64 61 156 61q153 0 153 -152v-240q0 -63 10 -96h-52q-5 25 -7 60q-25 -33 -63.5 -52t-80.5 -19zM188 34q78 0 134 72v128h-22
q-88 0 -143 -28.5t-55 -91.5q0 -37 26 -58.5t60 -21.5zM196 540l97 122h78l-130 -122h-45z" />
    <glyph glyph-name="acircumflex" unicode="&#xe2;" horiz-adv-x="458" 
d="M181 -11q-59 0 -96 34t-37 89q0 46 23 79.5t62 50.5t80.5 25t86.5 8h22v54q0 58 -25.5 85.5t-79.5 27.5q-69 0 -124 -51l-28 36q64 61 156 61q153 0 153 -152v-240q0 -63 10 -96h-52q-5 25 -7 60q-25 -33 -63.5 -52t-80.5 -19zM188 34q78 0 134 72v128h-22
q-88 0 -143 -28.5t-55 -91.5q0 -37 26 -58.5t60 -21.5zM85 541l119 147h34l119 -147h-49l-88 94l-86 -94h-49z" />
    <glyph glyph-name="atilde" unicode="&#xe3;" horiz-adv-x="458" 
d="M181 -11q-59 0 -96 34t-37 89q0 46 23 79.5t62 50.5t80.5 25t86.5 8h22v54q0 58 -25.5 85.5t-79.5 27.5q-69 0 -124 -51l-28 36q64 61 156 61q153 0 153 -152v-240q0 -63 10 -96h-52q-5 25 -7 60q-25 -33 -63.5 -52t-80.5 -19zM188 34q78 0 134 72v128h-22
q-88 0 -143 -28.5t-55 -91.5q0 -37 26 -58.5t60 -21.5zM268 545q-24 0 -53 20.5t-46 20.5q-21 0 -54 -33l-27 27q36 53 85 53q24 0 53 -21t46 -21q28 0 55 34l28 -29q-42 -51 -87 -51z" />
    <glyph glyph-name="adieresis" unicode="&#xe4;" horiz-adv-x="458" 
d="M181 -11q-59 0 -96 34t-37 89q0 46 23 79.5t62 50.5t80.5 25t86.5 8h22v54q0 58 -25.5 85.5t-79.5 27.5q-69 0 -124 -51l-28 36q64 61 156 61q153 0 153 -152v-240q0 -63 10 -96h-52q-5 25 -7 60q-25 -33 -63.5 -52t-80.5 -19zM188 34q78 0 134 72v128h-22
q-88 0 -143 -28.5t-55 -91.5q0 -37 26 -58.5t60 -21.5zM136 543q-16 0 -27.5 12t-11.5 29q0 16 11.5 28t27.5 12t28 -12t12 -28q0 -17 -11.5 -29t-28.5 -12zM305 543q-16 0 -27.5 12t-11.5 29q0 16 11.5 28t27.5 12q17 0 29 -12t12 -28q0 -17 -12 -29t-29 -12z" />
    <glyph glyph-name="aring" unicode="&#xe5;" horiz-adv-x="458" 
d="M181 -11q-59 0 -96 34t-37 89q0 46 23 79.5t62 50.5t80.5 25t86.5 8h22v54q0 58 -25.5 85.5t-79.5 27.5q-69 0 -124 -51l-28 36q64 61 156 61q153 0 153 -152v-240q0 -63 10 -96h-52q-5 25 -7 60q-25 -33 -63.5 -52t-80.5 -19zM188 34q78 0 134 72v128h-22
q-88 0 -143 -28.5t-55 -91.5q0 -37 26 -58.5t60 -21.5zM221 542q-37 0 -63.5 27t-26.5 64q0 38 26.5 65t63.5 27t63.5 -27t26.5 -64q0 -38 -26.5 -65t-63.5 -27zM221 573q25 0 40 18t15 42t-15 42t-40 18t-40 -17.5t-15 -41.5t15 -42.5t40 -18.5z" />
    <glyph glyph-name="ae" unicode="&#xe6;" horiz-adv-x="754" 
d="M181 -11q-59 0 -96 34t-37 89q0 46 23 79.5t62 50.5t80.5 25t86.5 8h23v54q0 57 -25 85t-81 28q-69 0 -124 -51l-28 36q63 61 156 61q119 0 142 -98q24 46 66.5 72t96.5 26q89 0 138 -65.5t41 -168.5h-329v-11q1 -90 40.5 -149.5t119.5 -59.5q78 0 139 45l22 -41
q-69 -49 -163 -49q-117 0 -175 99q-70 -99 -178 -99zM188 34q46 0 86 25t67 66q-18 48 -20 109h-21q-88 0 -143 -28.5t-55 -91.5q0 -37 26 -58.5t60 -21.5zM379 297h274q-1 60 -33 103t-96 43q-59 0 -96.5 -40t-48.5 -106z" />
    <glyph glyph-name="ccedilla" unicode="&#xe7;" horiz-adv-x="433" 
d="M202 -215q-38 0 -62 12l10 33q22 -11 51 -11q56 0 56 43q0 42 -73 42l32 88q-83 12 -128 82.5t-45 164.5q0 112 58.5 180.5t151.5 68.5q85 0 142 -50l-27 -38q-50 43 -116 43q-76 0 -115 -57t-39 -145q0 -87 39 -147t114 -60q74 0 122 43l23 -39q-52 -46 -142 -49
l-22 -60q31 -4 50.5 -22t19.5 -44q0 -37 -28.5 -57.5t-71.5 -20.5z" />
    <glyph glyph-name="egrave" unicode="&#xe8;" horiz-adv-x="477" 
d="M257 -11q-104 0 -159 72t-55 182q0 104 56 174.5t149 70.5q90 0 138.5 -65t40.5 -169h-329v-11q1 -90 41 -149.5t120 -59.5q79 0 138 45l22 -41q-67 -49 -162 -49zM101 297h274q-1 60 -33 103t-96 43q-60 0 -97 -40.5t-48 -105.5zM226 540l-129 122h78l97 -122h-46z" />
    <glyph glyph-name="eacute" unicode="&#xe9;" horiz-adv-x="477" 
d="M221 540l97 122h78l-130 -122h-45zM257 -11q-104 0 -159 72t-55 182q0 104 56 174.5t149 70.5q90 0 138.5 -65t40.5 -169h-329v-11q1 -90 41 -149.5t120 -59.5q79 0 138 45l22 -41q-67 -49 -162 -49zM101 297h274q-1 60 -33 103t-96 43q-60 0 -97 -40.5t-48 -105.5z" />
    <glyph glyph-name="ecircumflex" unicode="&#xea;" horiz-adv-x="477" 
d="M110 541l119 147h34l119 -147h-49l-88 94l-86 -94h-49zM257 -11q-104 0 -159 72t-55 182q0 104 56 174.5t149 70.5q90 0 138.5 -65t40.5 -169h-329v-11q1 -90 41 -149.5t120 -59.5q79 0 138 45l22 -41q-67 -49 -162 -49zM101 297h274q-1 60 -33 103t-96 43
q-60 0 -97 -40.5t-48 -105.5z" />
    <glyph glyph-name="edieresis" unicode="&#xeb;" horiz-adv-x="477" 
d="M161 543q-16 0 -27.5 12t-11.5 29q0 16 11.5 28t27.5 12q17 0 28.5 -12t11.5 -28q0 -17 -11.5 -29t-28.5 -12zM330 543q-16 0 -27.5 12t-11.5 29q0 16 11.5 28t27.5 12q17 0 29 -12t12 -28q0 -17 -12 -29t-29 -12zM257 -11q-104 0 -159 72t-55 182q0 104 56 174.5
t149 70.5q90 0 138.5 -65t40.5 -169h-329v-11q1 -90 41 -149.5t120 -59.5q79 0 138 45l22 -41q-67 -49 -162 -49zM101 297h274q-1 60 -33 103t-96 43q-60 0 -97 -40.5t-48 -105.5z" />
    <glyph glyph-name="igrave" unicode="&#xec;" horiz-adv-x="235" 
d="M91 0v477h53v-477h-53zM98 540l-129 122h78l97 -122h-46z" />
    <glyph glyph-name="iacute" unicode="&#xed;" horiz-adv-x="235" 
d="M94 540l97 122h78l-130 -122h-45zM91 0v477h53v-477h-53z" />
    <glyph glyph-name="icircumflex" unicode="&#xee;" horiz-adv-x="235" 
d="M-18 541l119 147h34l119 -147h-49l-88 94l-86 -94h-49zM91 0v477h53v-477h-53z" />
    <glyph glyph-name="idieresis" unicode="&#xef;" horiz-adv-x="235" 
d="M33 543q-16 0 -27.5 12t-11.5 29q0 16 11.5 28t27.5 12q17 0 28.5 -12t11.5 -28q0 -17 -11.5 -29t-28.5 -12zM202 543q-16 0 -27.5 12t-11.5 29q0 16 11.5 28t27.5 12q17 0 29 -12t12 -28q0 -17 -12 -29t-29 -12zM91 0v477h53v-477h-53z" />
    <glyph glyph-name="eth" unicode="&#xf0;" horiz-adv-x="533" 
d="M259 -11q-96 0 -155.5 72t-59.5 176q0 110 58 179t156 69q54 0 98.5 -23.5t70.5 -58.5q-21 150 -124 224l-86 -71l-28 32l75 62q-70 37 -171 37l10 44q114 0 202 -47l71 59l27 -33l-61 -50q146 -110 146 -346q0 -86 -22.5 -157t-75.5 -119.5t-131 -48.5zM262 34
q85 0 128.5 78t43.5 204v22q-66 101 -180 101q-74 0 -115 -56.5t-41 -143.5q0 -86 44 -145.5t120 -59.5z" />
    <glyph glyph-name="ntilde" unicode="&#xf1;" horiz-adv-x="520" 
d="M88 0v477h52v-76q63 87 158 87q71 0 104.5 -40.5t33.5 -109.5v-338h-52v327q0 114 -97 114q-42 0 -82 -28t-65 -66v-347h-52zM303 545q-23 0 -52 20.5t-47 20.5q-21 0 -54 -33l-27 27q36 53 85 53q24 0 53 -21t46 -21q28 0 55 34l28 -29q-42 -51 -87 -51z" />
    <glyph glyph-name="ograve" unicode="&#xf2;" horiz-adv-x="517" 
d="M257 -11q-105 0 -160 74.5t-55 174.5q0 47 12.5 90t37.5 79.5t67.5 58.5t96.5 22q105 0 162 -74.5t57 -173.5q0 -100 -56.5 -175.5t-161.5 -75.5zM258 34q78 0 120 58.5t42 145.5q0 85 -44 145t-122 60q-77 0 -117 -58.5t-40 -144.5q0 -87 42 -146.5t119 -59.5zM238 540
l-129 122h78l97 -122h-46z" />
    <glyph glyph-name="oacute" unicode="&#xf3;" horiz-adv-x="517" 
d="M233 540l97 122h78l-130 -122h-45zM257 -11q-105 0 -160 74.5t-55 174.5q0 47 12.5 90t37.5 79.5t67.5 58.5t96.5 22q105 0 162 -74.5t57 -173.5q0 -100 -56.5 -175.5t-161.5 -75.5zM258 34q78 0 120 58.5t42 145.5q0 85 -44 145t-122 60q-77 0 -117 -58.5t-40 -144.5
q0 -87 42 -146.5t119 -59.5z" />
    <glyph glyph-name="ocircumflex" unicode="&#xf4;" horiz-adv-x="517" 
d="M122 541l119 147h34l119 -147h-49l-88 94l-86 -94h-49zM257 -11q-105 0 -160 74.5t-55 174.5q0 47 12.5 90t37.5 79.5t67.5 58.5t96.5 22q105 0 162 -74.5t57 -173.5q0 -100 -56.5 -175.5t-161.5 -75.5zM258 34q78 0 120 58.5t42 145.5q0 85 -44 145t-122 60
q-77 0 -117 -58.5t-40 -144.5q0 -87 42 -146.5t119 -59.5z" />
    <glyph glyph-name="otilde" unicode="&#xf5;" horiz-adv-x="517" 
d="M257 -11q-105 0 -160 74.5t-55 174.5q0 47 12.5 90t37.5 79.5t67.5 58.5t96.5 22q105 0 162 -74.5t57 -173.5q0 -100 -56.5 -175.5t-161.5 -75.5zM258 34q78 0 120 58.5t42 145.5q0 85 -44 145t-122 60q-77 0 -117 -58.5t-40 -144.5q0 -87 42 -146.5t119 -59.5zM305 545
q-23 0 -52 20.5t-47 20.5q-21 0 -54 -33l-27 27q36 53 85 53q24 0 53 -21t46 -21q28 0 55 34l28 -29q-42 -51 -87 -51z" />
    <glyph glyph-name="odieresis" unicode="&#xf6;" horiz-adv-x="517" 
d="M173 543q-16 0 -27.5 12t-11.5 29q0 16 11.5 28t27.5 12q17 0 28.5 -12t11.5 -28q0 -17 -11.5 -29t-28.5 -12zM342 543q-16 0 -27.5 12t-11.5 29q0 16 11.5 28t27.5 12q17 0 29 -12t12 -28q0 -17 -12 -29t-29 -12zM257 -11q-105 0 -160 74.5t-55 174.5q0 47 12.5 90
t37.5 79.5t67.5 58.5t96.5 22q105 0 162 -74.5t57 -173.5q0 -100 -56.5 -175.5t-161.5 -75.5zM258 34q78 0 120 58.5t42 145.5q0 85 -44 145t-122 60q-77 0 -117 -58.5t-40 -144.5q0 -87 42 -146.5t119 -59.5z" />
    <glyph glyph-name="divide" unicode="&#xf7;" horiz-adv-x="568" 
d="M282 31q-17 0 -29.5 12.5t-12.5 29.5t12.5 29.5t29.5 12.5t29.5 -12.5t12.5 -29.5t-12.5 -29.5t-29.5 -12.5zM282 361q-17 0 -29.5 12.5t-12.5 30.5q0 17 12.5 29.5t29.5 12.5t29.5 -12.5t12.5 -29.5q0 -18 -12.5 -30.5t-29.5 -12.5zM41 216v45h486v-45h-486z" />
    <glyph glyph-name="oslash" unicode="&#xf8;" horiz-adv-x="517" 
d="M82 -51l-31 21l55 83q-64 70 -64 185q0 47 12.5 90t37.5 79.5t67.5 58.5t96.5 22q65 0 115 -32l59 89l32 -21l-61 -92q74 -73 74 -192q0 -100 -56.5 -175.5t-161.5 -75.5q-73 0 -123 39zM258 33q78 0 120.5 59.5t42.5 145.5q0 94 -48 152l-213 -322q38 -35 98 -35z
M135 96l210 320q-37 28 -91 28q-77 0 -117.5 -58.5t-40.5 -145.5t39 -144z" />
    <glyph glyph-name="ugrave" unicode="&#xf9;" horiz-adv-x="519" 
d="M222 -11q-71 0 -105 41t-34 110v337h52v-326q0 -115 98 -115q47 0 88 32.5t58 62.5v346h52v-385q0 -60 9 -92h-53q-7 37 -7 78q-22 -34 -63 -61.5t-95 -27.5zM240 540l-129 122h78l97 -122h-46z" />
    <glyph glyph-name="uacute" unicode="&#xfa;" horiz-adv-x="519" 
d="M235 540l97 122h78l-130 -122h-45zM222 -11q-71 0 -105 41t-34 110v337h52v-326q0 -115 98 -115q47 0 88 32.5t58 62.5v346h52v-385q0 -60 9 -92h-53q-7 37 -7 78q-22 -34 -63 -61.5t-95 -27.5z" />
    <glyph glyph-name="ucircumflex" unicode="&#xfb;" horiz-adv-x="519" 
d="M124 541l119 147h34l119 -147h-49l-88 94l-86 -94h-49zM222 -11q-71 0 -105 41t-34 110v337h52v-326q0 -115 98 -115q47 0 88 32.5t58 62.5v346h52v-385q0 -60 9 -92h-53q-7 37 -7 78q-22 -34 -63 -61.5t-95 -27.5z" />
    <glyph glyph-name="udieresis" unicode="&#xfc;" horiz-adv-x="519" 
d="M174 543q-16 0 -27.5 12t-11.5 29q0 16 11.5 28t27.5 12t28 -12t12 -28q0 -17 -11.5 -29t-28.5 -12zM343 543q-16 0 -27.5 12t-11.5 29q0 16 11.5 28t27.5 12q17 0 29 -12t12 -28q0 -17 -12 -29t-29 -12zM222 -11q-71 0 -105 41t-34 110v337h52v-326q0 -115 98 -115
q47 0 88 32.5t58 62.5v346h52v-385q0 -60 9 -92h-53q-7 37 -7 78q-22 -34 -63 -61.5t-95 -27.5z" />
    <glyph glyph-name="yacute" unicode="&#xfd;" horiz-adv-x="450" 
d="M53 -230q-23 0 -39 4l7 44q21 -3 33 -3q48 0 74.5 28.5t50.5 91.5l24 68l-179 474h57l150 -409l147 409h55l-205 -546q-30 -81 -67 -121t-108 -40zM204 540l97 122h78l-130 -122h-45z" />
    <glyph glyph-name="thorn" unicode="&#xfe;" horiz-adv-x="514" 
d="M88 -219v939h52v-295q50 63 135 63q93 0 144.5 -68.5t51.5 -179.5q0 -106 -58 -178.5t-155 -72.5q-74 0 -118 41v-249h-52zM255 34q77 0 119 59.5t42 144.5q0 88 -37 145.5t-113 57.5q-33 0 -68 -17.5t-58 -47.5v-298q44 -44 115 -44z" />
    <glyph glyph-name="ydieresis" unicode="&#xff;" horiz-adv-x="450" 
d="M53 -230q-23 0 -39 4l7 44q21 -3 33 -3q48 0 74.5 28.5t50.5 91.5l24 68l-179 474h57l150 -409l147 409h55l-205 -546q-30 -81 -67 -121t-108 -40zM144 543q-16 0 -27.5 12t-11.5 29q0 16 11.5 28t27.5 12t28 -12t12 -28q0 -17 -11.5 -29t-28.5 -12zM313 543
q-16 0 -27.5 12t-11.5 29q0 16 11.5 28t27.5 12q17 0 29 -12t12 -28q0 -17 -12 -29t-29 -12z" />
    <glyph glyph-name="dotlessi" unicode="&#x131;" horiz-adv-x="235" 
d="M91 0v477h53v-477h-53z" />
    <glyph glyph-name="Lslash" unicode="&#x141;" horiz-adv-x="471" 
d="M110 0v302l-83 -68l-25 31l108 89v312h54v-269l108 89l26 -32l-134 -109v-298h267v-47h-321z" />
    <glyph glyph-name="lslash" unicode="&#x142;" horiz-adv-x="255" 
d="M97 0v295l-70 -63v55l70 63v370h52v-326l78 70v-55l-78 -70v-339h-52z" />
    <glyph glyph-name="OE" unicode="&#x152;" horiz-adv-x="867" 
d="M376 -11q-145 0 -233.5 100t-88.5 243q0 144 88 244.5t233 100.5q57 0 99 -11h327v-47h-272v-240h239v-47h-239v-285h279v-47h-334q-39 -11 -98 -11zM374 35q57 0 100 16v564q-46 16 -99 16q-120 0 -192 -86.5t-72 -210.5q0 -125 71 -212t192 -87z" />
    <glyph glyph-name="oe" unicode="&#x153;" horiz-adv-x="853" 
d="M257 -11q-105 0 -160 74.5t-55 174.5q0 47 12.5 90t37.5 79.5t67.5 58.5t96.5 22q69 0 118 -35.5t72 -96.5q21 61 68 96.5t110 35.5q84 0 132 -57.5t48 -150.5q0 -17 -1 -26h-329v-11q1 -90 41 -149.5t120 -59.5q79 0 138 45l23 -41q-69 -49 -163 -49q-69 0 -117.5 36.5
t-68.5 96.5q-23 -61 -72 -97t-118 -36zM258 34q78 0 120 58.5t42 145.5q0 85 -44 145t-122 60q-77 0 -117 -58.5t-40 -144.5q0 -87 42 -146.5t119 -59.5zM478 297h274q-1 60 -33.5 103t-96.5 43q-60 0 -97 -40.5t-47 -105.5z" />
    <glyph glyph-name="Scaron" unicode="&#x160;" horiz-adv-x="490" 
d="M227 712l-119 147h49l88 -95l86 95h49l-120 -147h-33zM231 -11q-114 0 -187 67l30 38q66 -59 160 -59q66 0 108 37t42 91q0 25 -10 47t-22 36.5t-38 32t-41 25.5t-48 25q-39 20 -60.5 33.5t-48 36t-38 51.5t-11.5 66q0 75 53 118t132 43q100 0 169 -52l-27 -40
q-63 46 -143 46q-57 0 -93.5 -30.5t-36.5 -81.5q0 -27 9 -48t30.5 -39t38.5 -28t53 -29q38 -19 54 -27.5t47.5 -30t46 -40t27 -48t12.5 -64.5q0 -78 -57.5 -127t-150.5 -49z" />
    <glyph glyph-name="scaron" unicode="&#x161;" horiz-adv-x="393" 
d="M176 539l-119 147h49l88 -95l86 95h49l-120 -147h-33zM186 -12q-87 0 -145 46l23 40q19 -15 53 -27.5t70 -12.5q49 0 78 22t29 60q0 36 -25.5 56.5t-84.5 47.5q-66 28 -99 58.5t-33 84.5q0 55 38 90t103 35q81 0 135 -44l-26 -38q-47 37 -110 37q-42 0 -65.5 -20.5
t-23.5 -56.5q0 -20 7.5 -35t24.5 -27.5t30.5 -19t40.5 -18.5q69 -30 104.5 -60.5t35.5 -83.5q0 -61 -43.5 -97.5t-116.5 -36.5z" />
    <glyph glyph-name="Ydieresis" unicode="&#x178;" horiz-adv-x="537" 
d="M243 0v251l-223 415h62l189 -360h2l189 360h56l-221 -415v-251h-54zM183 716q-16 0 -27.5 12t-11.5 29q0 16 11.5 28t27.5 12q17 0 28.5 -11.5t11.5 -28.5t-11.5 -29t-28.5 -12zM352 716q-16 0 -27.5 12t-11.5 29q0 16 11.5 28t27.5 12q17 0 29 -12t12 -28q0 -17 -12 -29
t-29 -12z" />
    <glyph glyph-name="Zcaron" unicode="&#x17d;" horiz-adv-x="557" 
d="M264 712l-119 147h49l88 -95l86 95h49l-120 -147h-33zM46 0v42l384 578h-365v46h430v-37l-390 -583h403v-46h-462z" />
    <glyph glyph-name="zcaron" unicode="&#x17e;" horiz-adv-x="410" 
d="M192 539l-119 147h49l88 -95l86 95h49l-120 -147h-33zM43 0v37l255 397h-240v43h303v-39l-257 -395h262v-43h-323z" />
    <glyph glyph-name="florin" unicode="&#x192;" horiz-adv-x="432" 
d="M18 -188q-48 0 -79 21l19 42q23 -17 57 -17q110 0 127 148l42 374h-102l5 42h102l14 128q21 181 179 181q63 0 101 -32l-22 -41q-31 27 -85 27q-60 0 -88 -38.5t-36 -109.5l-13 -115h110l-6 -42h-108l-44 -380q-21 -188 -173 -188z" />
    <glyph glyph-name="dotlessj" unicode="&#x237;" horiz-adv-x="229" 
d="M17 -229q-31 0 -43 7l9 44q12 -6 32 -6q41 0 57.5 31t16.5 91v539h52v-550q0 -72 -30 -114t-94 -42z" />
    <glyph glyph-name="circumflex" unicode="&#x2c6;" horiz-adv-x="500" 
d="M114 541l119 147h34l119 -147h-49l-88 94l-86 -94h-49z" />
    <glyph glyph-name="caron" unicode="&#x2c7;" horiz-adv-x="500" 
d="M233 539l-119 147h49l88 -95l86 95h49l-120 -147h-33z" />
    <glyph glyph-name="breve" unicode="&#x2d8;" horiz-adv-x="500" 
d="M250 538q-54 0 -91 38.5t-43 100.5h46q4 -40 27 -68t61 -28t61 28t26 68h46q-6 -62 -42.5 -100.5t-90.5 -38.5z" />
    <glyph glyph-name="dotaccent" unicode="&#x2d9;" horiz-adv-x="500" 
d="M250 575q-17 0 -29.5 12.5t-12.5 30.5t12.5 30.5t29.5 12.5t29.5 -12.5t12.5 -30.5t-12.5 -30.5t-29.5 -12.5z" />
    <glyph glyph-name="ring" unicode="&#x2da;" horiz-adv-x="500" 
d="M250 542q-37 0 -63.5 27t-26.5 64q0 38 26.5 65t63.5 27t63.5 -27t26.5 -64q0 -38 -26.5 -65t-63.5 -27zM250 573q25 0 40 18t15 42t-15 42t-40 18t-40 -17.5t-15 -41.5t15 -42.5t40 -18.5z" />
    <glyph glyph-name="ogonek" unicode="&#x2db;" horiz-adv-x="500" 
d="M266 -215q-44 0 -66.5 25.5t-22.5 63.5q0 65 61 126h39q-55 -72 -55 -122q0 -24 13.5 -39t37.5 -15q25 0 47 10l10 -32q-28 -17 -64 -17z" />
    <glyph glyph-name="tilde" unicode="&#x2dc;" horiz-adv-x="500" 
d="M297 545q-23 0 -52 20.5t-47 20.5q-21 0 -54 -33l-27 27q36 53 85 53q24 0 53 -21t46 -21q28 0 55 34l28 -29q-42 -51 -87 -51z" />
    <glyph glyph-name="hungarumlaut" unicode="&#x2dd;" horiz-adv-x="500" 
d="M99 540l98 122h76l-128 -122h-46zM250 540l98 122h76l-128 -122h-46z" />
    <glyph glyph-name="Delta" unicode="&#x394;" horiz-adv-x="607" 
d="M22 0v39l252 643h56l255 -643v-39h-563zM79 47h445l-223 574z" />
    <glyph glyph-name="Omega" unicode="&#x3a9;" horiz-adv-x="730" 
d="M62 0v47h149q-65 41 -108 123t-43 180q0 140 89.5 233.5t215.5 93.5t215 -93t89 -234q0 -98 -43 -180t-108 -123h150v-47h-216v46q74 46 117 124.5t43 179.5q0 114 -71.5 197.5t-175.5 83.5q-105 0 -176.5 -83.5t-71.5 -197.5q0 -101 43.5 -179t118.5 -125v-46h-217z" />
    <glyph glyph-name="mu" unicode="&#x3bc;" horiz-adv-x="531" 
d="M86 -217v694h52v-336q0 -105 91 -105q46 0 87.5 29.5t65.5 64.5v347h52v-388q0 -55 8 -89h-53q-5 25 -7 77q-24 -34 -64.5 -61t-94.5 -27q-60 0 -87 38h-2q4 -39 4 -120v-124h-52z" />
    <glyph glyph-name="pi" unicode="&#x3c0;" horiz-adv-x="588" 
d="M459 -11q-46 0 -65 27t-19 81v338h-196q0 -233 -30 -435h-53q33 223 33 435h-101v42h514v-42h-115v-335q0 -33 8 -49.5t30 -16.5q19 0 38 15l19 -38q-26 -22 -63 -22z" />
    <glyph glyph-name="endash" unicode="&#x2013;" horiz-adv-x="513" 
d="M55 255v45h403v-45h-403z" />
    <glyph glyph-name="emdash" unicode="&#x2014;" horiz-adv-x="816" 
d="M55 255v45h706v-45h-706z" />
    <glyph glyph-name="quoteleft" unicode="&#x2018;" horiz-adv-x="179" 
d="M89 475q-19 0 -32.5 14t-13.5 37q0 37 18.5 79t35.5 61h39q-35 -45 -35 -88q0 -14 14 -32t14 -33q0 -16 -11.5 -27t-28.5 -11z" />
    <glyph glyph-name="quoteright" unicode="&#x2019;" horiz-adv-x="179" 
d="M43 485q35 47 35 89q0 13 -14 31t-14 33q0 16 11.5 27t28.5 11q19 0 32.5 -14t13.5 -37q0 -37 -18.5 -77.5t-35.5 -62.5h-39z" />
    <glyph glyph-name="quotesinglbase" unicode="&#x201a;" horiz-adv-x="179" 
d="M39 -111q36 46 36 88q0 13 -14.5 31t-14.5 33q0 16 11.5 27t28.5 11q20 0 33.5 -14t13.5 -37q0 -37 -18.5 -78t-35.5 -61h-40z" />
    <glyph glyph-name="quotedblleft" unicode="&#x201c;" horiz-adv-x="318" 
d="M83 475q-19 0 -32.5 14t-13.5 37q0 37 18.5 78.5t35.5 61.5h39q-35 -47 -35 -88q0 -14 14 -32t14 -33q0 -16 -11.5 -27t-28.5 -11zM228 475q-19 0 -32.5 14t-13.5 37q0 37 18.5 79t35.5 61h39q-36 -46 -36 -88q0 -14 14.5 -32t14.5 -33q0 -16 -11.5 -27t-28.5 -11z" />
    <glyph glyph-name="quotedblright" unicode="&#x201d;" horiz-adv-x="318" 
d="M43 485q35 47 35 89q0 13 -14 31t-14 33q0 16 11.5 27t28.5 11q19 0 32.5 -14t13.5 -37q0 -37 -18.5 -77.5t-35.5 -62.5h-39zM187 485q36 48 36 89q0 13 -14.5 31t-14.5 33q0 16 12 27t29 11q19 0 32.5 -14t13.5 -37q0 -37 -18.5 -77.5t-35.5 -62.5h-40z" />
    <glyph glyph-name="quotedblbase" unicode="&#x201e;" horiz-adv-x="323" 
d="M39 -111q36 46 36 88q0 13 -14.5 31t-14.5 33q0 16 11.5 27t28.5 11q20 0 33.5 -14t13.5 -37q0 -37 -18.5 -78t-35.5 -61h-40zM184 -111q35 47 35 88q0 13 -14 31t-14 33q0 16 11.5 27t28.5 11q19 0 32.5 -14t13.5 -37q0 -37 -18.5 -78t-35.5 -61h-39z" />
    <glyph glyph-name="dagger" unicode="&#x2020;" horiz-adv-x="534" 
d="M248 -170l-11 454l11 150l-83 -6h-110v49h110l83 -6l-9 112v137h56v-137l-9 -112l83 6h110v-49h-110l-83 6l10 -150l-10 -454h-38z" />
    <glyph glyph-name="daggerdbl" unicode="&#x2021;" horiz-adv-x="534" 
d="M239 -169v145l10 112l-84 -6h-110v49h110l84 -6l-12 150v10l11 149l-83 -6h-110v49h110l83 -6l-9 112v137h56v-137l-9 -112l83 6h110v-49h-110l-83 6l10 -149v-10l-10 -150l83 6h110v-49h-110l-83 6l9 -112v-145h-56z" />
    <glyph glyph-name="bullet" unicode="&#x2022;" horiz-adv-x="316" 
d="M158 188q-41 0 -69.5 28.5t-28.5 69.5t28.5 69.5t69.5 28.5t70 -28.5t29 -69.5t-29 -69.5t-70 -28.5z" />
    <glyph glyph-name="ellipsis" unicode="&#x2026;" horiz-adv-x="565" 
d="M95 -9q-18 0 -31 13.5t-13 32.5t13 32t31 13t31 -13t13 -32t-13 -32.5t-31 -13.5zM282 -9q-18 0 -31 13.5t-13 32.5t13 32t31 13q19 0 31.5 -13t12.5 -32t-12.5 -32.5t-31.5 -13.5zM470 -9q-18 0 -31.5 13.5t-13.5 32.5t13.5 32t31.5 13t31 -13t13 -32t-13 -32.5
t-31 -13.5z" />
    <glyph glyph-name="perthousand" unicode="&#x2030;" horiz-adv-x="1017" 
d="M168 222q-62 0 -96.5 40t-34.5 93q0 54 35.5 94t97.5 40q63 0 97 -39.5t34 -92.5q0 -54 -35 -94.5t-98 -40.5zM170 258q41 0 63.5 27.5t22.5 69.5t-23 70t-64 28q-42 0 -64.5 -27.5t-22.5 -69.5t23.5 -70t64.5 -28zM533 -11q-63 0 -97.5 40t-34.5 93q0 54 35.5 94.5
t98.5 40.5q62 0 96.5 -40t34.5 -93q0 -54 -35.5 -94.5t-97.5 -40.5zM534 26q41 0 64 27t23 70q0 42 -23.5 69.5t-64.5 27.5t-64 -27t-23 -69q0 -43 23.5 -70.5t64.5 -27.5zM847 -11q-62 0 -97 40t-35 93q0 54 36 94.5t98 40.5t96.5 -40t34.5 -93q0 -54 -35.5 -94.5
t-97.5 -40.5zM848 26q42 0 64.5 27t22.5 70q0 42 -23 69.5t-65 27.5q-41 0 -64 -27t-23 -69q0 -43 23.5 -70.5t64.5 -27.5zM189 0l285 477h46l-285 -477h-46z" />
    <glyph glyph-name="guilsinglleft" unicode="&#x2039;" horiz-adv-x="290" 
d="M187 57l-138 188l138 189h55l-137 -189l137 -188h-55z" />
    <glyph glyph-name="guilsinglright" unicode="&#x203a;" horiz-adv-x="290" 
d="M48 57l136 188l-136 190h55l138 -190l-138 -188h-55z" />
    <glyph glyph-name="fraction" unicode="&#x2044;" horiz-adv-x="91" 
d="M-181 0l408 666h45l-408 -666h-45z" />
    <glyph glyph-name="uni2070" unicode="&#x2070;" horiz-adv-x="372" 
d="M186 337q-70 0 -108 49.5t-38 118.5t37.5 118t108.5 49q70 0 108 -49.5t38 -117.5q0 -69 -38 -118.5t-108 -49.5zM186 374q44 0 69.5 36t25.5 95q0 58 -25.5 94t-69.5 36t-69.5 -36t-25.5 -94q0 -59 25.5 -95t69.5 -36z" />
    <glyph glyph-name="uni2074" unicode="&#x2074;" horiz-adv-x="300" 
d="M185 342v73h-172v32l173 219h43v-215h51v-36h-51v-73h-44zM65 451h120v154z" />
    <glyph glyph-name="uni2075" unicode="&#x2075;" horiz-adv-x="272" 
d="M84 337q-35 0 -50 6l7 37q16 -6 44 -6q44 0 75 17.5t31 53.5q0 67 -108 67q-19 0 -35 -2l11 156h170v-37h-129l-6 -81h6q61 0 99 -26t38 -74q0 -54 -42.5 -82.5t-110.5 -28.5z" />
    <glyph glyph-name="uni2076" unicode="&#x2076;" horiz-adv-x="309" 
d="M162 337q-61 0 -91.5 40t-30.5 98q0 90 56 143.5t155 53.5l10 -36q-151 -4 -171 -121q28 25 80 25q48 0 78 -27.5t30 -72.5t-32.5 -74t-83.5 -29zM164 373q30 0 48 18t18 46q0 33 -18.5 50.5t-50.5 17.5q-46 0 -74 -25v-8q0 -47 20.5 -73t56.5 -26z" />
    <glyph glyph-name="uni2077" unicode="&#x2077;" horiz-adv-x="272" 
d="M99 330l-39 16l128 282h-167v38h217v-28z" />
    <glyph glyph-name="uni2078" unicode="&#x2078;" horiz-adv-x="300" 
d="M149 337q-53 0 -83.5 23.5t-30.5 61.5q0 48 75 89q-31 17 -48.5 35t-17.5 45q0 35 31 58t76 23q48 0 77 -21t29 -57q0 -42 -71 -79q79 -41 79 -91q0 -39 -32.5 -63t-83.5 -24zM149 373q31 0 49.5 14t18.5 36q0 33 -72 69q-64 -37 -64 -69q0 -22 19 -36t49 -14zM151 532
q2 1 9 5.5t9.5 6t9 6t9 6.5t7 6t7 7.5t5 7.5t3.5 8t1 8q0 19 -16 31t-43 12t-44.5 -12t-17.5 -31q0 -10 4.5 -18.5t16.5 -17.5t17.5 -12t22.5 -13z" />
    <glyph glyph-name="uni2079" unicode="&#x2079;" horiz-adv-x="311" 
d="M62 335l-9 37q66 0 111.5 31t56.5 91q-32 -25 -80 -25q-49 0 -79.5 27.5t-30.5 72.5t33 74t84 29q62 0 92.5 -40t30.5 -98q0 -91 -55 -145t-154 -54zM150 504q47 0 74 25v8q0 45 -21 72t-56 27q-30 0 -48.5 -18.5t-18.5 -45.5q0 -33 19 -50.5t51 -17.5z" />
    <glyph glyph-name="uni207A" unicode="&#x207a;" horiz-adv-x="331" 
d="M146 389v98h-112v37h112v95h40v-95h111v-36h-111v-99h-40z" />
    <glyph glyph-name="uni207B" unicode="&#x207b;" horiz-adv-x="291" 
d="M45 488v36h201v-36h-201z" />
    <glyph glyph-name="uni207D" unicode="&#x207d;" horiz-adv-x="191" 
d="M143 286q-99 93 -99 218q0 65 28 120t71 92h43q-93 -89 -93 -211q0 -126 93 -219h-43z" />
    <glyph glyph-name="uni207E" unicode="&#x207e;" horiz-adv-x="191" 
d="M4 286q94 92 94 216t-94 214h44q98 -87 98 -213q0 -128 -98 -217h-44z" />
    <glyph glyph-name="uni2080" unicode="&#x2080;" horiz-adv-x="372" 
d="M186 -206q-70 0 -108 49.5t-38 118.5t37.5 118t108.5 49q70 0 108 -49t38 -118t-38 -118.5t-108 -49.5zM186 -169q44 0 69.5 36t25.5 95q0 58 -25.5 94t-69.5 36t-69.5 -36t-25.5 -94t25.5 -94.5t69.5 -36.5z" />
    <glyph glyph-name="uni2081" unicode="&#x2081;" horiz-adv-x="227" 
d="M103 -200v284l-74 -24l-11 37l95 27h36v-324h-46z" />
    <glyph glyph-name="uni2082" unicode="&#x2082;" horiz-adv-x="306" 
d="M31 -200v25q96 85 125 121q43 52 43 90q0 28 -17 42t-44 14q-42 0 -81 -33l-24 29q47 41 111 41q50 0 76.5 -23t26.5 -65q0 -47 -39.5 -95.5t-107.5 -108.5h163v-37h-232z" />
    <glyph glyph-name="uni2083" unicode="&#x2083;" horiz-adv-x="278" 
d="M91 -206q-40 0 -63 9l9 37q20 -8 52 -8q44 0 70.5 15.5t26.5 46.5q0 61 -116 63v32q42 1 74 17.5t32 44.5q0 20 -16 30.5t-42 10.5q-42 0 -74 -28l-20 29q16 14 44.5 25t58.5 11q46 0 71 -19.5t25 -51.5q0 -31 -21.5 -50.5t-53.5 -28.5v-1q34 -3 60 -24.5t26 -57.5
q0 -50 -39 -76t-104 -26z" />
    <glyph glyph-name="uni2084" unicode="&#x2084;" horiz-adv-x="300" 
d="M185 -200v72h-172v32l173 220h43v-215h51v-37h-51v-72h-44zM65 -91h120v154z" />
    <glyph glyph-name="uni2085" unicode="&#x2085;" horiz-adv-x="272" 
d="M84 -206q-30 0 -50 6l7 38q16 -6 44 -6q43 0 74.5 17.5t31.5 52.5q0 67 -108 67q-19 0 -35 -2l11 157h170v-38h-129l-6 -81h6q61 0 99 -25.5t38 -74.5q0 -54 -42.5 -82.5t-110.5 -28.5z" />
    <glyph glyph-name="uni2086" unicode="&#x2086;" horiz-adv-x="309" 
d="M162 -206q-61 0 -91.5 40.5t-30.5 98.5q0 90 56 143.5t155 53.5l10 -37q-150 -2 -171 -120q30 25 80 25q48 0 78 -27.5t30 -72.5q0 -46 -32 -75t-84 -29zM164 -169q30 0 48 18t18 46q0 33 -18.5 50t-50.5 17q-47 0 -74 -25v-8q0 -46 20.5 -72t56.5 -26z" />
    <glyph glyph-name="uni2087" unicode="&#x2087;" horiz-adv-x="272" 
d="M99 -212l-39 16l128 281h-167v39h217v-28z" />
    <glyph glyph-name="uni2088" unicode="&#x2088;" horiz-adv-x="300" 
d="M149 -206q-53 0 -83.5 24t-30.5 61q0 48 75 89q-32 18 -49 36t-17 45q0 35 31 57.5t76 22.5q48 0 77 -21t29 -57q0 -42 -71 -79q79 -38 79 -91q0 -39 -32.5 -63t-83.5 -24zM149 -170q31 0 49.5 14t18.5 36q0 21 -19 36.5t-53 33.5q-20 -12 -30 -19t-22 -21.5t-12 -29.5
q0 -22 19 -36t49 -14zM151 -10q16 10 21.5 13.5t17.5 12t16.5 17t4.5 17.5q0 19 -16 31.5t-43 12.5t-44.5 -12.5t-17.5 -31.5q0 -10 4.5 -18t17 -17t17 -12t22.5 -13z" />
    <glyph glyph-name="uni2089" unicode="&#x2089;" horiz-adv-x="311" 
d="M62 -207l-9 36q66 1 111.5 32t56.5 91q-30 -25 -80 -25q-49 0 -79.5 27.5t-30.5 72.5t33 74t84 29q62 0 92.5 -40t30.5 -99q0 -91 -55 -144.5t-154 -53.5zM150 -38q47 0 74 25v8q0 45 -21 72t-56 27q-30 0 -48.5 -19t-18.5 -46q0 -33 19 -50t51 -17z" />
    <glyph glyph-name="Euro" unicode="&#x20ac;" horiz-adv-x="580" 
d="M389 -11q-109 0 -177 70.5t-90 179.5h-81v43h74q-3 26 -3 52q0 13 2 41h-73v43h79q20 112 89 185.5t180 73.5q85 0 147 -40l-25 -43q-59 37 -124 37q-86 0 -139.5 -60t-71.5 -153h185v-43h-190q-2 -14 -2 -40q0 -19 2 -53h190v-43h-182q20 -89 73 -146t138 -57
q72 0 128 39l26 -39q-67 -47 -155 -47z" />
    <glyph glyph-name="uni2117" unicode="&#x2117;" horiz-adv-x="859" 
d="M429 -12q-154 0 -261.5 108t-107.5 263t107.5 263.5t261.5 108.5t262 -108.5t108 -263.5t-108 -263t-262 -108zM429 27q140 0 234 95t94 237t-94 237.5t-234 95.5q-139 0 -232.5 -95.5t-93.5 -237.5t93.5 -237t232.5 -95zM318 129v464h130q64 0 101.5 -39.5t37.5 -92.5
q0 -55 -40.5 -93.5t-115.5 -38.5h-66v-200h-47zM365 369h64q51 0 79 24.5t28 66.5q0 41 -25 66t-73 25h-73v-182z" />
    <glyph glyph-name="trademark" unicode="&#x2122;" horiz-adv-x="697" 
d="M294 377l27 289h48l71 -177q16 -40 23 -67h2q2 17 23 68l71 176h48l28 -289h-41l-15 177q-3 45 -3 67h-2q-10 -41 -24 -74l-70 -170h-36l-67 165q-16 39 -26 79h-1q0 -21 -4 -69l-14 -175h-38zM126 377v253h-83v36h209v-36h-84v-253h-42z" />
    <glyph glyph-name="uni2126" unicode="&#x2126;" horiz-adv-x="708" 
d="M60 0v44h147q-64 40 -107 125t-43 181q0 142 87.5 234.5t209.5 92.5t209.5 -92.5t87.5 -234.5q0 -96 -43 -181t-107 -125h147v-44h-207v46q73 46 114.5 125t41.5 179q0 114 -70 197.5t-173 83.5t-173 -83.5t-70 -197.5q0 -101 41.5 -179.5t115.5 -124.5v-46h-208z" />
    <glyph glyph-name="partialdiff" unicode="&#x2202;" horiz-adv-x="526" 
d="M227 -11q-79 0 -132 56.5t-53 138.5q0 96 58.5 158.5t150.5 62.5q54 0 107 -16.5t81 -37.5q-9 295 -288 295l14 44q164 0 246 -95t82 -253q0 -149 -75 -251t-191 -102zM229 34q86 0 144 82t65 191q-31 22 -83 37.5t-104 15.5q-70 0 -112.5 -47.5t-42.5 -125.5
q0 -66 38 -109.5t95 -43.5z" />
    <glyph glyph-name="uni2206" unicode="&#x2206;" horiz-adv-x="681" 
d="M30 0l279 700h49l279 -700h-607zM101 47h465l-233 586z" />
    <glyph glyph-name="product" unicode="&#x220f;" horiz-adv-x="828" 
d="M181 -224v880h-110v44h677v-44h-110v-880h-53v880h-352v-880h-52z" />
    <glyph glyph-name="summation" unicode="&#x2211;" horiz-adv-x="602" 
d="M56 -147v42l280 445l-265 394v42h465v-47h-406l261 -387l-276 -442h436v-47h-495z" />
    <glyph glyph-name="minus" unicode="&#x2212;" 
d="M69 249v46h369v-46h-369z" />
    <glyph glyph-name="uni2219" unicode="&#x2219;" horiz-adv-x="190" 
d="M95 244q-18 0 -31.5 14t-13.5 33t13.5 32t31.5 13q19 0 32 -13t13 -32q0 -20 -13 -33.5t-32 -13.5z" />
    <glyph glyph-name="radical" unicode="&#x221a;" horiz-adv-x="545" 
d="M230 0l-183 477h54l154 -412l212 655h53l-240 -720h-50z" />
    <glyph glyph-name="infinity" unicode="&#x221e;" horiz-adv-x="872" 
d="M201 116q-68 0 -114.5 42t-46.5 100q0 60 48.5 104t115.5 44q49 0 99.5 -25.5t132.5 -90.5q82 64 134 90t99 26q68 0 114.5 -42t46.5 -100q0 -60 -48 -104t-117 -44q-46 0 -98 25.5t-134 89.5q-86 -67 -135 -91t-97 -24zM205 159q35 0 78.5 22.5t114.5 77.5
q-73 57 -116 80t-80 23q-46 0 -80 -30t-34 -70q0 -42 35 -72.5t82 -30.5zM668 159q45 0 79.5 30.5t34.5 70.5q0 42 -35 72t-82 30q-37 0 -80 -22.5t-113 -77.5q73 -58 116.5 -80.5t79.5 -22.5z" />
    <glyph glyph-name="uni2224" unicode="&#x2224;" horiz-adv-x="190" 
d="M95 244q-18 0 -31.5 14t-13.5 33t13.5 32t31.5 13q19 0 32 -13t13 -32q0 -20 -13 -33.5t-32 -13.5z" />
    <glyph glyph-name="logicaland" unicode="&#x2227;" horiz-adv-x="190" 
d="M95 244q-18 0 -31.5 14t-13.5 33t13.5 32t31.5 13q19 0 32 -13t13 -32q0 -20 -13 -33.5t-32 -13.5z" />
    <glyph glyph-name="integral" unicode="&#x222b;" horiz-adv-x="320" 
d="M21 -235q-29 0 -69 14l14 44q31 -11 61 -11q58 0 86.5 38.5t28.5 106.5v566q0 87 44.5 141t126.5 54q33 0 67 -15l-18 -44q-24 12 -55 12q-56 0 -85.5 -45t-29.5 -115v-568q0 -81 -44 -129.5t-127 -48.5z" />
    <glyph glyph-name="approxequal" unicode="&#x2248;" horiz-adv-x="552" 
d="M76 161l-21 34q56 56 119 56q48 0 106.5 -35t98.5 -35q49 0 98 45l21 -36q-55 -55 -122 -55q-48 0 -107.5 34.5t-98.5 34.5q-46 0 -94 -43zM76 300l-21 35q56 56 119 56q48 0 106.5 -35t98.5 -35q49 0 98 45l21 -36q-55 -55 -122 -55q-48 0 -107.5 34.5t-98.5 34.5
q-47 0 -94 -44z" />
    <glyph glyph-name="notequal" unicode="&#x2260;" horiz-adv-x="599" 
d="M172 1l-36 19l85 140h-172v42h198l68 113h-266v43h292l86 140l37 -21l-75 -119h161v-43h-187l-69 -113h256v-42h-282z" />
    <glyph glyph-name="lessequal" unicode="&#x2264;" horiz-adv-x="569" 
d="M492 20l-425 206v39l425 205v-49l-371 -176l371 -176v-49zM67 -98v46h425v-46h-425z" />
    <glyph glyph-name="greaterequal" unicode="&#x2265;" horiz-adv-x="569" 
d="M75 20v49l371 176l-371 176v49l426 -205v-39zM75 -98v46h426v-46h-426z" />
    <glyph glyph-name="dotmath" unicode="&#x22c5;" horiz-adv-x="190" 
d="M95 244q-18 0 -31.5 14t-13.5 33t13.5 32t31.5 13q19 0 32 -13t13 -32q0 -20 -13 -33.5t-32 -13.5z" />
    <glyph glyph-name="lozenge" unicode="&#x25ca;" horiz-adv-x="615" 
d="M290 -3l-253 331l251 341h37l253 -331l-250 -341h-38zM310 48l208 288l-213 279l-208 -286z" />
    <glyph glyph-name="numbersign.case" horiz-adv-x="567" 
d="M126 0l35 229h-137l6 42h137l22 146h-137l6 41h137l32 208h43l-32 -208h130l32 208h42l-31 -208h132l-7 -41h-132l-22 -146h133l-6 -42h-133l-35 -229h-42l34 229h-130l-34 -229h-43zM210 271h129l22 146h-130z" />
    <glyph glyph-name="dollar.case" horiz-adv-x="490" 
d="M229 -120v109q-115 1 -185 67l30 38q64 -57 156 -59v292q-41 21 -63.5 34.5t-49 36.5t-38.5 52t-12 66q0 69 45 111t117 49v108h43v-107q90 -6 149 -52l-27 -40q-52 38 -124 45v-264q39 -20 62 -34t51.5 -38.5t42 -56.5t13.5 -72q0 -69 -45.5 -115.5t-122.5 -57.5v-112
h-42zM270 39q52 9 83.5 43t31.5 81q0 48 -29.5 80.5t-85.5 62.5v-267zM230 386v242q-49 -5 -79 -34t-30 -75q0 -47 26.5 -75.5t82.5 -57.5z" />
    <glyph glyph-name="percent.case" horiz-adv-x="806" 
d="M201 345q-78 0 -121.5 49t-43.5 115t43.5 115.5t120.5 49.5q78 0 121.5 -49.5t43.5 -114.5q0 -66 -44 -115.5t-120 -49.5zM201 385q51 0 84 36t33 88q0 53 -33 89t-85 36t-84.5 -35.5t-32.5 -88.5t32.5 -89t85.5 -36zM605 -7q-77 0 -120.5 49.5t-43.5 115.5t43.5 115.5
t120.5 49.5q78 0 121.5 -49.5t43.5 -114.5q0 -66 -44 -116t-121 -50zM606 34q51 0 84 36t33 88q0 53 -33 88.5t-85 35.5t-85 -35.5t-33 -87.5q0 -53 33 -89t86 -36zM161 0l431 666h51l-431 -666h-51z" />
    <glyph glyph-name="parenleft.case" horiz-adv-x="296" 
d="M242 -125q-182 197 -182 458q0 254 182 444h50q-179 -191 -179 -444q0 -256 179 -458h-50z" />
    <glyph glyph-name="parenright.case" horiz-adv-x="296" 
d="M4 -125q179 191 179 444q0 256 -179 458h50q182 -196 182 -457q0 -257 -182 -445h-50z" />
    <glyph glyph-name="hyphen.case" horiz-adv-x="301" 
d="M55 330v46h191v-46h-191z" />
    <glyph glyph-name="slash.case" horiz-adv-x="385" 
d="M63 0l241 666h50l-240 -666h-51z" />
    <glyph glyph-name="less.case" horiz-adv-x="426" 
d="M314 -31l-258 269l258 268l33 -35l-226 -234l226 -233z" />
    <glyph glyph-name="equal.case" horiz-adv-x="516" 
d="M55 158v45h407v-45h-407zM55 314v45h407v-45h-407z" />
    <glyph glyph-name="greater.case" horiz-adv-x="426" 
d="M112 -31l-33 35l226 233l-226 234l33 35l258 -268z" />
    <glyph glyph-name="bracketleft.case" horiz-adv-x="295" 
d="M85 -110v881h184v-42h-133v-797h133v-42h-184z" />
    <glyph glyph-name="bracketright.case" horiz-adv-x="295" 
d="M26 -110v42h133v797h-133v42h184v-881h-184z" />
    <glyph glyph-name="braceleft.case" horiz-adv-x="343" 
d="M239 -110q-44 0 -72 28.5t-28 78.5v207q0 49 -32 79.5t-78 31.5v42q46 1 78 31t32 80v196q0 50 28 78.5t72 28.5h77v-42h-67q-59 0 -59 -80v-190q0 -50 -29 -81t-74 -40v-2q45 -10 74 -42t29 -83v-202q0 -77 58 -77h68v-42h-77z" />
    <glyph glyph-name="braceright.case" horiz-adv-x="343" 
d="M26 -110v42h68q59 0 59 79v202q0 50 29 81t74 40v2q-45 10 -74 42t-29 83v190q0 78 -59 78h-68v42h77q44 0 72.5 -29t28.5 -79v-195q0 -50 31.5 -80t78.5 -31v-42q-47 -1 -78.5 -31t-31.5 -80v-207q0 -51 -28 -79t-72 -28h-78z" />
    <glyph glyph-name="exclamdown.case" horiz-adv-x="260" 
d="M130 587q-17 0 -29.5 12.5t-12.5 30.5t12.5 31t29.5 13t30 -13t13 -31t-13 -30.5t-30 -12.5zM99 0l11 485h40l12 -485h-63z" />
    <glyph glyph-name="guillemotleft.case" horiz-adv-x="453" 
d="M187 159l-138 188l138 189h55l-137 -189l137 -188h-55zM349 159l-137 188l137 189h56l-137 -189l137 -188h-56z" />
    <glyph glyph-name="uni00AD.case" horiz-adv-x="301" 
d="M55 330v46h191v-46h-191z" />
    <glyph glyph-name="guillemotright.case" horiz-adv-x="453" 
d="M48 159l136 188l-136 189h55l138 -189l-138 -188h-55zM210 159l137 188l-137 189h56l138 -189l-138 -188h-56z" />
    <glyph glyph-name="questiondown.case" horiz-adv-x="387" 
d="M238 -11q-89 0 -137.5 42.5t-48.5 120.5q0 105 113 173q36 23 49 45.5t13 58.5v60h50v-65q0 -45 -18 -75.5t-62 -58.5t-67 -57t-23 -78q0 -120 135 -120q45 0 81 20l19 -41q-44 -25 -104 -25zM251 587q-17 0 -30 12.5t-13 30.5t13 31t30 13t30 -13t13 -31t-13 -30.5
t-30 -12.5z" />
    <glyph glyph-name="endash.case" horiz-adv-x="513" 
d="M55 330v45h403v-45h-403z" />
    <glyph glyph-name="emdash.case" horiz-adv-x="816" 
d="M55 330v45h706v-45h-706z" />
    <glyph glyph-name="perthousand.case" horiz-adv-x="1202" 
d="M201 345q-78 0 -121.5 49t-43.5 115t43.5 115.5t120.5 49.5q78 0 121.5 -49.5t43.5 -114.5q0 -66 -44 -115.5t-120 -49.5zM201 385q51 0 84 36t33 88q0 53 -33 89t-85 36t-84.5 -35.5t-32.5 -88.5t32.5 -89t85.5 -36zM605 -7q-77 0 -120.5 49.5t-43.5 115.5t43.5 115.5
t120.5 49.5q78 0 121.5 -49.5t43.5 -114.5q0 -66 -44 -116t-121 -50zM606 34q51 0 84 36t33 88q0 53 -33 88.5t-85 35.5t-85 -35.5t-33 -87.5q0 -53 33 -89t86 -36zM1002 -7q-78 0 -121.5 49.5t-43.5 115.5q0 65 44 115t121 50t121 -49.5t44 -114.5q0 -66 -44 -116t-121 -50
zM1002 34q52 0 85 36t33 88q0 53 -33 88.5t-85 35.5t-85 -35.5t-33 -87.5q0 -53 33 -89t85 -36zM161 0l431 666h51l-431 -666h-51z" />
    <glyph glyph-name="guilsinglleft.case" horiz-adv-x="290" 
d="M187 159l-138 188l138 189h55l-137 -189l137 -188h-55z" />
    <glyph glyph-name="guilsinglright.case" horiz-adv-x="290" 
d="M48 159l136 188l-136 189h55l138 -189l-138 -188h-55z" />
    <glyph glyph-name="zero.dnom" horiz-adv-x="372" 
d="M186 -6q-70 0 -108 49.5t-38 118.5t37.5 118t108.5 49q70 0 108 -49t38 -118t-38 -118.5t-108 -49.5zM186 31q44 0 69.5 36t25.5 95q0 58 -25.5 94t-69.5 36t-69.5 -36t-25.5 -94t25.5 -94.5t69.5 -36.5z" />
    <glyph glyph-name="one.dnom" horiz-adv-x="227" 
d="M103 0v284l-74 -24l-11 37l95 27h36v-324h-46z" />
    <glyph glyph-name="two.dnom" horiz-adv-x="306" 
d="M31 0v25q96 85 125 121q43 52 43 90q0 28 -17 42t-44 14q-42 0 -81 -33l-24 29q47 41 111 41q50 0 76.5 -23t26.5 -65q0 -47 -39.5 -95.5t-107.5 -108.5h163v-37h-232z" />
    <glyph glyph-name="three.dnom" horiz-adv-x="278" 
d="M91 -6q-40 0 -63 9l9 37q20 -8 52 -8q44 0 70.5 15.5t26.5 46.5q0 61 -116 63v32q42 1 74 17.5t32 44.5q0 20 -16 30.5t-42 10.5q-42 0 -74 -28l-20 29q16 14 44.5 25t58.5 11q46 0 71 -19.5t25 -51.5q0 -31 -21.5 -50.5t-53.5 -28.5v-1q34 -3 60 -24.5t26 -57.5
q0 -50 -39 -76t-104 -26z" />
    <glyph glyph-name="four.dnom" horiz-adv-x="300" 
d="M185 0v72h-172v32l173 220h43v-215h51v-37h-51v-72h-44zM65 109h120v154z" />
    <glyph glyph-name="five.dnom" horiz-adv-x="272" 
d="M84 -6q-30 0 -50 6l7 38q16 -6 44 -6q43 0 74.5 17.5t31.5 52.5q0 67 -108 67q-19 0 -35 -2l11 157h170v-38h-129l-6 -81h6q61 0 99 -25.5t38 -74.5q0 -54 -42.5 -82.5t-110.5 -28.5z" />
    <glyph glyph-name="six.dnom" horiz-adv-x="309" 
d="M162 -6q-61 0 -91.5 40.5t-30.5 98.5q0 90 56 143.5t155 53.5l10 -37q-150 -2 -171 -120q30 25 80 25q48 0 78 -27.5t30 -72.5q0 -46 -32 -75t-84 -29zM164 31q30 0 48 18t18 46q0 33 -18.5 50t-50.5 17q-47 0 -74 -25v-8q0 -46 20.5 -72t56.5 -26z" />
    <glyph glyph-name="seven.dnom" horiz-adv-x="272" 
d="M99 -12l-39 16l128 281h-167v39h217v-28z" />
    <glyph glyph-name="eight.dnom" horiz-adv-x="300" 
d="M149 -6q-53 0 -83.5 24t-30.5 61q0 48 75 89q-32 18 -49 36t-17 45q0 35 31 57.5t76 22.5q48 0 77 -21t29 -57q0 -42 -71 -79q79 -38 79 -91q0 -39 -32.5 -63t-83.5 -24zM149 30q31 0 49.5 14t18.5 36q0 21 -19 36.5t-53 33.5q-20 -12 -30 -19t-22 -21.5t-12 -29.5
q0 -22 19 -36t49 -14zM151 190q16 10 21.5 13.5t17.5 12t16.5 17t4.5 17.5q0 19 -16 31.5t-43 12.5t-44.5 -12.5t-17.5 -31.5q0 -10 4.5 -18t17 -17t17 -12t22.5 -13z" />
    <glyph glyph-name="nine.dnom" horiz-adv-x="311" 
d="M62 -7l-9 36q66 1 111.5 32t56.5 91q-30 -25 -80 -25q-49 0 -79.5 27.5t-30.5 72.5t33 74t84 29q62 0 92.5 -40t30.5 -99q0 -91 -55 -144.5t-154 -53.5zM150 162q47 0 74 25v8q0 45 -21 72t-56 27q-30 0 -48.5 -19t-18.5 -46q0 -33 19 -50t51 -17z" />
    <glyph glyph-name="zero.lf" horiz-adv-x="593" 
d="M296 -11q-64 0 -112.5 30.5t-76 81.5t-41 109.5t-13.5 122.5q0 65 13 123.5t40.5 109.5t76 81t113.5 30q64 0 113 -30.5t76.5 -81.5t41 -109.5t13.5 -122.5t-13.5 -122.5t-41 -109.5t-76.5 -81.5t-113 -30.5zM296 34q64 0 107.5 44t62 109.5t18.5 145.5
q0 126 -47.5 212.5t-140.5 86.5q-64 0 -107.5 -44t-61.5 -109t-18 -146q0 -126 47 -212.5t140 -86.5z" />
    <glyph glyph-name="one.lf" horiz-adv-x="326" 
d="M169 0v616l-132 -45l-12 45l151 50h46v-666h-53z" />
    <glyph glyph-name="two.lf" horiz-adv-x="489" 
d="M38 0v30q8 8 45 47.5t50 53.5t46.5 51.5t48 56.5t40.5 52.5t38 56t27 51t20.5 53.5t5.5 48q0 62 -34.5 96.5t-92.5 34.5q-85 0 -152 -67l-28 33q76 80 183 80q82 0 131.5 -45.5t49.5 -124.5q0 -40 -17.5 -86t-39.5 -83.5t-65 -90.5t-71 -83.5t-79 -85.5q-20 -21 -29 -31
h316v-47h-393z" />
    <glyph glyph-name="three.lf" horiz-adv-x="452" 
d="M137 -11q-58 0 -91 7l8 47q40 -8 83 -8q90 0 145 40.5t55 114.5q0 76 -62 114t-162 38v40q74 1 138.5 42.5t64.5 105.5q0 45 -31 72t-84 27q-83 0 -145 -55l-25 34q69 69 173 69q80 0 123.5 -40.5t43.5 -103.5q0 -61 -46 -104.5t-107 -59.5v-1q65 -7 120 -54.5t55 -120.5
q0 -98 -72 -151t-184 -53z" />
    <glyph glyph-name="four.lf" horiz-adv-x="514" 
d="M338 0v159h-311v43l309 464h53v-459h95v-48h-95v-159h-51zM86 207h251v379z" />
    <glyph glyph-name="five.lf" horiz-adv-x="434" 
d="M101 -11q-36 0 -56 4l7 47q40 -5 52 -5q97 0 162 45t65 129q0 83 -58 122t-152 39q-30 0 -50 -2l19 298h280v-47h-232l-13 -203h9q114 -2 183.5 -54.5t69.5 -148.5q0 -107 -80.5 -165.5t-205.5 -58.5z" />
    <glyph glyph-name="six.lf" horiz-adv-x="504" 
d="M263 -11q-71 0 -120.5 43t-69.5 103.5t-20 130.5q0 188 100 300t278 112l9 -43q-142 0 -227 -76t-102 -220q26 26 68 43t86 17q91 0 144.5 -57t53.5 -147q0 -87 -54 -146.5t-146 -59.5zM266 34q69 0 105.5 47t36.5 111q0 76 -38 119t-109 43q-89 0 -154 -60v-28
q0 -101 40 -166.5t119 -65.5z" />
    <glyph glyph-name="seven.lf" horiz-adv-x="441" 
d="M146 -23l-49 18l238 624h-310v47h366v-40z" />
    <glyph glyph-name="eight.lf" horiz-adv-x="474" 
d="M235 -11q-89 0 -138.5 48.5t-49.5 121.5q0 104 146 191q-64 40 -96.5 77.5t-32.5 92.5q0 68 50 112.5t125 44.5q78 0 125.5 -42.5t47.5 -111.5q0 -54 -35.5 -92t-101.5 -77q69 -40 110.5 -85t41.5 -106q0 -76 -53 -125t-139 -49zM237 35q61 0 97.5 36.5t36.5 91.5
q0 48 -37.5 87t-103.5 78q-61 -39 -94.5 -77.5t-33.5 -88.5q0 -55 36 -91t99 -36zM238 377q60 37 90 68.5t30 74.5q0 48 -32 79.5t-87 31.5q-56 0 -88.5 -31t-32.5 -79q0 -44 30.5 -76t89.5 -68z" />
    <glyph glyph-name="nine.lf" horiz-adv-x="504" 
d="M84 -19l-10 43q138 0 220 78t99 224q-58 -58 -153 -58q-90 0 -144 57t-54 146q0 87 54 146.5t146 59.5q104 0 157 -82t53 -194q0 -191 -94.5 -305.5t-273.5 -114.5zM244 313q92 0 153 58q0 3 0.5 14t0.5 15q0 101 -40 166.5t-119 65.5q-69 0 -106 -47t-37 -111
q0 -75 38 -118t110 -43z" />
    <glyph glyph-name="exclam.sc" horiz-adv-x="230" 
d="M115 -7q-17 0 -29.5 12.5t-12.5 29.5q0 18 12.5 30.5t29.5 12.5t29 -12.5t12 -30.5q0 -17 -12 -29.5t-29 -12.5zM96 156l-11 352h61l-11 -352h-39z" />
    <glyph glyph-name="ampersand.sc" horiz-adv-x="507" 
d="M211 -9q-79 0 -126 40t-47 97q0 51 30.5 84t85.5 62q-37 39 -54 66.5t-17 61.5q0 50 38 83t96 33q55 0 91.5 -30t36.5 -76q0 -79 -120 -143l147 -149q33 49 47 122l45 -9q-13 -78 -61 -145l88 -88h-63l-55 56q-68 -65 -162 -65zM198 296q48 27 73 53t25 60q0 27 -23 47.5
t-57 20.5q-36 0 -59 -21t-23 -52q0 -30 14 -51t50 -57zM214 34q76 0 128 52l-160 159q-91 -50 -91 -114q0 -40 33.5 -68.5t89.5 -28.5z" />
    <glyph glyph-name="question.sc" horiz-adv-x="326" 
d="M91 156v36q0 32 12.5 53.5t45.5 40.5q78 46 78 105q0 84 -100 84q-35 0 -69 -19l-17 39q38 23 92 23q71 0 109 -33.5t38 -89.5q0 -80 -96 -137q-27 -17 -36 -31.5t-9 -39.5v-31h-48zM117 -7q-17 0 -29.5 12.5t-12.5 29.5q0 18 12.5 30.5t29.5 12.5t29 -12.5t12 -30.5
q0 -17 -12 -29.5t-29 -12.5z" />
    <glyph glyph-name="a.sc" horiz-adv-x="502" 
d="M20 0l205 508h52l206 -508h-55l-52 129h-253l-51 -129h-52zM140 175h219l-110 276z" />
    <glyph glyph-name="b.sc" horiz-adv-x="470" 
d="M87 0v508h136q79 0 123.5 -31t44.5 -95q0 -44 -24.5 -73t-66.5 -40v-1q50 -8 82 -41.5t32 -84.5q0 -142 -192 -142h-135zM139 44h82q71 0 105 23.5t34 73.5q0 104 -135 104h-86v-201zM139 287h78q121 0 121 92q0 86 -119 86h-80v-178z" />
    <glyph glyph-name="c.sc" horiz-adv-x="498" 
d="M302 -9q-118 0 -187 76t-69 187q0 113 69.5 188.5t188.5 75.5q88 0 147 -40l-27 -40q-49 35 -122 35q-95 0 -148 -61.5t-53 -154.5q0 -95 53.5 -158t149.5 -63q79 0 134 44l25 -37q-58 -52 -161 -52z" />
    <glyph glyph-name="d.sc" horiz-adv-x="553" 
d="M87 0v508h118q148 0 224.5 -67t76.5 -182q0 -118 -77.5 -188.5t-226.5 -70.5h-115zM140 44h66q119 0 182.5 55t63.5 157q0 103 -62.5 156t-185.5 53h-64v-421z" />
    <glyph glyph-name="e.sc" horiz-adv-x="438" 
d="M87 0v508h293v-44h-240v-172h214v-44h-214v-203h244v-45h-297z" />
    <glyph glyph-name="f.sc" horiz-adv-x="417" 
d="M87 0v508h289v-44h-236v-171h207v-44h-207v-249h-53z" />
    <glyph glyph-name="g.sc" horiz-adv-x="573" 
d="M306 -9q-120 0 -190 76t-70 187q0 113 71 188.5t192 75.5q106 0 166 -50l-27 -38q-56 43 -141 43q-98 0 -152 -61.5t-54 -154.5q0 -94 54.5 -158t151.5 -64t144 38v145h-122v44h174v-214q-64 -57 -197 -57z" />
    <glyph glyph-name="h.sc" horiz-adv-x="594" 
d="M87 0v508h53v-217h314v217h53v-508h-53v246h-314v-246h-53z" />
    <glyph glyph-name="i.sc" horiz-adv-x="232" 
d="M90 0v508h52v-508h-52z" />
    <glyph glyph-name="j.sc" horiz-adv-x="233" 
d="M33 -141q-27 0 -41 6l8 46q12 -6 29 -6q36 0 50 24.5t14 72.5v506h53v-516q0 -133 -113 -133z" />
    <glyph glyph-name="k.sc" horiz-adv-x="465" 
d="M386 0l-232 264l217 244h64l-217 -242l231 -266h-63zM87 0v508h52v-508h-52z" />
    <glyph glyph-name="l.sc" horiz-adv-x="395" 
d="M87 0v508h53v-463h223v-45h-276z" />
    <glyph glyph-name="m.sc" horiz-adv-x="694" 
d="M54 0l69 508h55l168 -449h1l169 449h55l69 -508h-54l-55 418h-1l-158 -418h-53l-160 418h-1l-54 -418h-50z" />
    <glyph glyph-name="n.sc" horiz-adv-x="586" 
d="M86 0v508h53l312 -425v425h49v-508h-48l-316 429v-429h-50z" />
    <glyph glyph-name="o.sc" horiz-adv-x="608" 
d="M304 -9q-118 0 -188 76t-70 186q0 112 70 188.5t188 76.5t188.5 -76t70.5 -186q0 -111 -70.5 -188t-188.5 -77zM304 35q95 0 149.5 63t54.5 155q0 93 -54.5 157t-149.5 64q-94 0 -148.5 -63.5t-54.5 -154.5q0 -92 54.5 -156.5t148.5 -64.5z" />
    <glyph glyph-name="p.sc" horiz-adv-x="444" 
d="M87 0v508h130q86 0 135 -37t49 -109q0 -75 -50 -114t-141 -39h-70v-209h-53zM140 254h70q138 0 138 106q0 105 -136 105h-72v-211z" />
    <glyph glyph-name="q.sc" horiz-adv-x="608" 
d="M501 -122q-105 0 -198 113q-117 1 -187 76.5t-70 185.5q0 112 70 188.5t188 76.5t188.5 -76t70.5 -186q0 -96 -54 -168.5t-147 -90.5q33 -39 65 -57.5t76 -18.5q40 0 66 21l21 -37q-33 -27 -89 -27zM304 35q95 0 149.5 63t54.5 155q0 93 -54.5 157t-149.5 64
q-94 0 -148.5 -63.5t-54.5 -154.5q0 -92 54.5 -156.5t148.5 -64.5z" />
    <glyph glyph-name="r.sc" horiz-adv-x="464" 
d="M87 0v508h133q179 0 179 -132q0 -123 -161 -130v-2q16 -9 59 -64l140 -180h-64l-123 162q-39 52 -56 65t-42 13h-12v-240h-53zM140 282h77q128 0 128 92q0 47 -32 69t-98 22h-75v-183z" />
    <glyph glyph-name="s.sc" horiz-adv-x="404" 
d="M191 -9q-93 0 -152 54l27 37q58 -47 127 -47q50 0 81.5 25t31.5 67q0 15 -3.5 27t-14.5 23.5t-17.5 18t-27 17t-27.5 14t-34 15.5q-62 28 -95.5 59.5t-33.5 85.5q0 59 44 95t109 36q81 0 135 -43l-25 -38q-45 37 -109 37q-45 0 -73.5 -22.5t-28.5 -61.5q0 -21 7.5 -37
t27.5 -30t31.5 -19.5t42.5 -19.5q27 -12 43 -20t38 -22.5t33.5 -29t20.5 -36.5t9 -47q0 -63 -46 -100.5t-121 -37.5z" />
    <glyph glyph-name="t.sc" horiz-adv-x="409" 
d="M178 0v464h-159v44h372v-44h-160v-464h-53z" />
    <glyph glyph-name="u.sc" horiz-adv-x="566" 
d="M284 -9q-102 0 -152 57t-50 159v301h53v-295q0 -177 151 -177q147 0 147 171v301h50v-298q0 -104 -49.5 -161.5t-149.5 -57.5z" />
    <glyph glyph-name="v.sc" horiz-adv-x="497" 
d="M224 0l-205 508h55l177 -449l175 449h51l-201 -508h-52z" />
    <glyph glyph-name="w.sc" horiz-adv-x="708" 
d="M167 0l-143 508h54l121 -435h2l129 435h51l130 -435h2l121 435h54l-144 -508h-54l-134 441h-1l-133 -441h-55z" />
    <glyph glyph-name="x.sc" horiz-adv-x="456" 
d="M26 0l173 265l-160 243h58l132 -204l130 204h55l-158 -246l173 -262h-58l-146 225l-143 -225h-56z" />
    <glyph glyph-name="y.sc" horiz-adv-x="446" 
d="M198 0v190l-180 318h59l147 -268h2l147 268h54l-176 -318v-190h-53z" />
    <glyph glyph-name="z.sc" horiz-adv-x="454" 
d="M41 0v39l296 425h-283v44h347v-39l-299 -425h310v-44h-371z" />
    <glyph glyph-name="exclamdown.sc" horiz-adv-x="230" 
d="M115 429q-17 0 -29.5 12.5t-12.5 29.5t12.5 30t29.5 13q16 0 28.5 -13t12.5 -30t-12 -29.5t-29 -12.5zM84 0l10 352h40l11 -352h-61z" />
    <glyph glyph-name="mu.sc" horiz-adv-x="694" 
d="M54 0l69 508h55l168 -449h1l169 449h55l69 -508h-54l-55 418h-1l-158 -418h-53l-160 418h-1l-54 -418h-50z" />
    <glyph glyph-name="questiondown.sc" horiz-adv-x="326" 
d="M193 -9q-71 0 -109 33.5t-38 89.5q0 80 96 137q27 17 36 31.5t9 39.5v31h47v-36q0 -32 -12.5 -53.5t-44.5 -40.5q-78 -46 -78 -105q0 -84 100 -84q35 0 69 19l17 -39q-38 -23 -92 -23zM209 429q-16 0 -28.5 13t-12.5 30t12.5 30t28.5 13q17 0 29.5 -13t12.5 -30
t-12.5 -30t-29.5 -13z" />
    <glyph glyph-name="germandbls.sc" horiz-adv-x="808" 
d="M191 -9q-93 0 -152 54l27 37q58 -47 127 -47q50 0 81.5 25t31.5 67q0 28 -18.5 50t-34.5 31t-61 29l-3 1.5l-3 1.5l-4 2q-30 14 -49 25t-39.5 28.5t-30.5 40t-10 51.5q0 59 44 95t109 36q81 0 135 -43l-25 -38q-45 37 -109 37q-45 0 -73.5 -22.5t-28.5 -61.5
q0 -22 7.5 -38t27.5 -30t31.5 -19.5t42.5 -19.5q35 -16 54 -26t43.5 -29t35.5 -43.5t11 -55.5q0 -63 -46 -100.5t-121 -37.5zM595 -9q-93 0 -152 54l27 37q55 -47 127 -47q50 0 81.5 25t31.5 67q0 28 -18.5 50t-34.5 31t-61 29l-3 1.5l-3 1.5l-4 2q-63 29 -96 60t-33 85
q0 59 44 95t109 36q79 0 135 -43l-25 -38q-47 37 -110 37q-45 0 -73 -22.5t-28 -61.5q0 -22 7.5 -38t27.5 -30t31.5 -19.5t42.5 -19.5q35 -16 54 -26t43.5 -29t35.5 -43.5t11 -55.5q0 -63 -46 -100.5t-121 -37.5z" />
    <glyph glyph-name="agrave.sc" horiz-adv-x="502" 
d="M20 0l205 508h52l206 -508h-55l-52 129h-253l-51 -129h-52zM140 175h219l-110 276zM231 564l-129 122h78l97 -122h-46z" />
    <glyph glyph-name="aacute.sc" horiz-adv-x="502" 
d="M226 564l97 122h78l-130 -122h-45zM20 0l205 508h52l206 -508h-55l-52 129h-253l-51 -129h-52zM140 175h219l-110 276z" />
    <glyph glyph-name="acircumflex.sc" horiz-adv-x="502" 
d="M115 565l119 147h34l119 -147h-49l-88 94l-86 -94h-49zM20 0l205 508h52l206 -508h-55l-52 129h-253l-51 -129h-52zM140 175h219l-110 276z" />
    <glyph glyph-name="atilde.sc" horiz-adv-x="502" 
d="M20 0l205 508h52l206 -508h-55l-52 129h-253l-51 -129h-52zM140 175h219l-110 276zM297 569q-23 0 -52 20.5t-47 20.5q-21 0 -54 -33l-27 27q36 53 85 53q24 0 53 -21t46 -21q28 0 55 34l28 -29q-42 -51 -87 -51z" />
    <glyph glyph-name="adieresis.sc" horiz-adv-x="502" 
d="M165 567q-16 0 -27.5 12t-11.5 29q0 16 11.5 28t27.5 12q17 0 28.5 -12t11.5 -28q0 -17 -11.5 -29t-28.5 -12zM334 567q-16 0 -27.5 12t-11.5 29q0 16 11.5 28t27.5 12q17 0 29 -12t12 -28q0 -17 -12 -29t-29 -12zM20 0l205 508h52l206 -508h-55l-52 129h-253l-51 -129
h-52zM140 175h219l-110 276z" />
    <glyph glyph-name="aring.sc" horiz-adv-x="502" 
d="M250 566q-37 0 -63.5 27t-26.5 64q0 38 26.5 65t63.5 27t63.5 -27t26.5 -64q0 -38 -26.5 -65t-63.5 -27zM250 597q25 0 40 18t15 42t-15 42t-40 18t-40 -17.5t-15 -41.5t15 -42.5t40 -18.5zM20 0l205 508h52l206 -508h-55l-52 129h-253l-51 -129h-52zM140 175h219
l-110 276z" />
    <glyph glyph-name="ae.sc" horiz-adv-x="666" 
d="M-5 0l308 508h305v-44h-227v-172h201v-44h-201v-203h232v-45h-286v144h-188l-87 -144h-57zM165 189h162v271z" />
    <glyph glyph-name="ccedilla.sc" horiz-adv-x="498" 
d="M264 -215q-38 0 -62 12l10 33q22 -11 51 -11q56 0 56 43q0 42 -73 42l33 88q-108 8 -170.5 82.5t-62.5 179.5q0 113 69.5 188.5t188.5 75.5q88 0 147 -40l-27 -40q-49 35 -122 35q-95 0 -148 -61.5t-53 -154.5q0 -95 53.5 -158t149.5 -63q79 0 134 44l25 -37
q-53 -48 -147 -52l-22 -62q31 -4 50.5 -22t19.5 -44q0 -37 -28.5 -57.5t-71.5 -20.5z" />
    <glyph glyph-name="egrave.sc" horiz-adv-x="438" 
d="M212 564l-129 122h78l97 -122h-46zM87 0v508h293v-44h-240v-172h214v-44h-214v-203h244v-45h-297z" />
    <glyph glyph-name="eacute.sc" horiz-adv-x="438" 
d="M207 564l97 122h78l-130 -122h-45zM87 0v508h293v-44h-240v-172h214v-44h-214v-203h244v-45h-297z" />
    <glyph glyph-name="ecircumflex.sc" horiz-adv-x="438" 
d="M97 565l119 147h34l119 -147h-49l-88 94l-86 -94h-49zM87 0v508h293v-44h-240v-172h214v-44h-214v-203h244v-45h-297z" />
    <glyph glyph-name="edieresis.sc" horiz-adv-x="438" 
d="M147 567q-16 0 -27.5 12t-11.5 29q0 16 11.5 28t27.5 12q17 0 28.5 -12t11.5 -28q0 -17 -11.5 -29t-28.5 -12zM316 567q-16 0 -27.5 12t-11.5 29q0 16 11.5 28t27.5 12q17 0 29 -12t12 -28q0 -17 -12 -29t-29 -12zM87 0v508h293v-44h-240v-172h214v-44h-214v-203h244v-45
h-297z" />
    <glyph glyph-name="igrave.sc" horiz-adv-x="232" 
d="M90 0v508h52v-508h-52zM96 564l-129 122h78l97 -122h-46z" />
    <glyph glyph-name="iacute.sc" horiz-adv-x="232" 
d="M92 564l97 122h78l-130 -122h-45zM90 0v508h52v-508h-52z" />
    <glyph glyph-name="icircumflex.sc" horiz-adv-x="232" 
d="M-19 565l119 147h34l119 -147h-49l-88 94l-86 -94h-49zM90 0v508h52v-508h-52z" />
    <glyph glyph-name="idieresis.sc" horiz-adv-x="232" 
d="M31 567q-16 0 -27.5 12t-11.5 29q0 16 11.5 28t27.5 12q17 0 28.5 -12t11.5 -28q0 -17 -11.5 -29t-28.5 -12zM200 567q-16 0 -27.5 12t-11.5 29q0 16 11.5 28t27.5 12q17 0 29 -12t12 -28q0 -17 -12 -29t-29 -12zM90 0v508h52v-508h-52z" />
    <glyph glyph-name="eth.sc" horiz-adv-x="560" 
d="M94 0v231h-56v43h56v234h119q148 0 224.5 -67t76.5 -182q0 -118 -78 -188.5t-226 -70.5h-116zM147 44h66q120 0 183 55t63 157q0 209 -248 209h-64v-191h127v-43h-127v-187z" />
    <glyph glyph-name="ntilde.sc" horiz-adv-x="586" 
d="M86 0v508h53l312 -425v425h49v-508h-48l-316 429v-429h-50zM339 569q-23 0 -52 20.5t-47 20.5q-21 0 -54 -33l-27 27q36 53 85 53q24 0 53 -21t46 -21q28 0 55 34l28 -29q-42 -51 -87 -51z" />
    <glyph glyph-name="ograve.sc" horiz-adv-x="608" 
d="M304 -9q-118 0 -188 76t-70 186q0 112 70 188.5t188 76.5t188.5 -76t70.5 -186q0 -111 -70.5 -188t-188.5 -77zM304 35q95 0 149.5 63t54.5 155q0 93 -54.5 157t-149.5 64q-94 0 -148.5 -63.5t-54.5 -154.5q0 -92 54.5 -156.5t148.5 -64.5zM284 564l-129 122h78l97 -122
h-46z" />
    <glyph glyph-name="oacute.sc" horiz-adv-x="608" 
d="M279 564l97 122h78l-130 -122h-45zM304 -9q-118 0 -188 76t-70 186q0 112 70 188.5t188 76.5t188.5 -76t70.5 -186q0 -111 -70.5 -188t-188.5 -77zM304 35q95 0 149.5 63t54.5 155q0 93 -54.5 157t-149.5 64q-94 0 -148.5 -63.5t-54.5 -154.5q0 -92 54.5 -156.5
t148.5 -64.5z" />
    <glyph glyph-name="ocircumflex.sc" horiz-adv-x="608" 
d="M168 565l119 147h34l119 -147h-49l-88 94l-86 -94h-49zM304 -9q-118 0 -188 76t-70 186q0 112 70 188.5t188 76.5t188.5 -76t70.5 -186q0 -111 -70.5 -188t-188.5 -77zM304 35q95 0 149.5 63t54.5 155q0 93 -54.5 157t-149.5 64q-94 0 -148.5 -63.5t-54.5 -154.5
q0 -92 54.5 -156.5t148.5 -64.5z" />
    <glyph glyph-name="otilde.sc" horiz-adv-x="608" 
d="M304 -9q-118 0 -188 76t-70 186q0 112 70 188.5t188 76.5t188.5 -76t70.5 -186q0 -111 -70.5 -188t-188.5 -77zM304 35q95 0 149.5 63t54.5 155q0 93 -54.5 157t-149.5 64q-94 0 -148.5 -63.5t-54.5 -154.5q0 -92 54.5 -156.5t148.5 -64.5zM351 569q-23 0 -52 20.5
t-47 20.5q-21 0 -54 -33l-27 27q36 53 85 53q24 0 53 -21t46 -21q28 0 55 34l28 -29q-42 -51 -87 -51z" />
    <glyph glyph-name="odieresis.sc" horiz-adv-x="608" 
d="M219 567q-16 0 -27.5 12t-11.5 29q0 16 11.5 28t27.5 12q17 0 28.5 -12t11.5 -28q0 -17 -11.5 -29t-28.5 -12zM388 567q-16 0 -27.5 12t-11.5 29q0 16 11.5 28t27.5 12q17 0 29 -12t12 -28q0 -17 -12 -29t-29 -12zM304 -9q-118 0 -188 76t-70 186q0 112 70 188.5
t188 76.5t188.5 -76t70.5 -186q0 -111 -70.5 -188t-188.5 -77zM304 35q95 0 149.5 63t54.5 155q0 93 -54.5 157t-149.5 64q-94 0 -148.5 -63.5t-54.5 -154.5q0 -92 54.5 -156.5t148.5 -64.5z" />
    <glyph glyph-name="oslash.sc" horiz-adv-x="608" 
d="M123 -49l-31 22l48 71q-94 76 -94 209q0 112 70 188.5t188 76.5q80 0 142 -38l48 70l32 -24l-50 -69q87 -75 87 -201q0 -111 -70.5 -188t-188.5 -77q-76 0 -131 32zM170 85l248 355q-49 34 -114 34q-94 0 -148.5 -63.5t-54.5 -154.5q0 -110 69 -171zM304 35
q95 0 149.5 63t54.5 155q0 98 -61 162l-247 -352q44 -28 104 -28z" />
    <glyph glyph-name="ugrave.sc" horiz-adv-x="566" 
d="M264 564l-129 122h78l97 -122h-46zM284 -9q-102 0 -152 57t-50 159v301h53v-295q0 -177 151 -177q147 0 147 171v301h50v-298q0 -104 -49.5 -161.5t-149.5 -57.5z" />
    <glyph glyph-name="uacute.sc" horiz-adv-x="566" 
d="M259 564l97 122h78l-130 -122h-45zM284 -9q-102 0 -152 57t-50 159v301h53v-295q0 -177 151 -177q147 0 147 171v301h50v-298q0 -104 -49.5 -161.5t-149.5 -57.5z" />
    <glyph glyph-name="ucircumflex.sc" horiz-adv-x="566" 
d="M147 565l119 147h34l119 -147h-49l-88 94l-86 -94h-49zM284 -9q-102 0 -152 57t-50 159v301h53v-295q0 -177 151 -177q147 0 147 171v301h50v-298q0 -104 -49.5 -161.5t-149.5 -57.5z" />
    <glyph glyph-name="udieresis.sc" horiz-adv-x="566" 
d="M198 567q-16 0 -27.5 12t-11.5 29q0 16 11.5 28t27.5 12t28 -12t12 -28q0 -17 -11.5 -29t-28.5 -12zM367 567q-16 0 -27.5 12t-11.5 29q0 16 11.5 28t27.5 12q17 0 29 -12t12 -28q0 -17 -12 -29t-29 -12zM284 -9q-102 0 -152 57t-50 159v301h53v-295q0 -177 151 -177
q147 0 147 171v301h50v-298q0 -104 -49.5 -161.5t-149.5 -57.5z" />
    <glyph glyph-name="yacute.sc" horiz-adv-x="446" 
d="M198 564l97 122h78l-130 -122h-45zM198 0v190l-180 318h59l147 -268h2l147 268h54l-176 -318v-190h-53z" />
    <glyph glyph-name="thorn.sc" horiz-adv-x="444" 
d="M87 0v508h53v-95h78q86 0 135.5 -37t49.5 -109q0 -75 -50.5 -114t-141.5 -39h-71v-114h-53zM140 159h72q138 0 138 106q0 105 -136 105h-74v-211z" />
    <glyph glyph-name="ydieresis.sc" horiz-adv-x="446" 
d="M138 567q-16 0 -27.5 12t-11.5 29q0 16 11.5 28t27.5 12t28 -12t12 -28q0 -17 -11.5 -29t-28.5 -12zM307 567q-16 0 -27.5 12t-11.5 29q0 16 11.5 28t27.5 12q17 0 29 -12t12 -28q0 -17 -12 -29t-29 -12zM198 0v190l-180 318h59l147 -268h2l147 268h54l-176 -318v-190
h-53z" />
    <glyph glyph-name="dotlessi.sc" horiz-adv-x="232" 
d="M90 0v508h52v-508h-52z" />
    <glyph glyph-name="lslash.sc" horiz-adv-x="404" 
d="M96 0v200l-55 -45l-24 31l79 66v256h53v-213l84 70l25 -32l-109 -90v-198h223v-45h-276z" />
    <glyph glyph-name="oe.sc" horiz-adv-x="721" 
d="M304 -9q-118 0 -188.5 76t-70.5 186q0 112 70 188.5t188 76.5q46 0 83 -10h277v-44h-227v-172h201v-44h-201v-203h232v-45h-283q-36 -9 -81 -9zM303 35q47 0 80 12v413q-34 14 -79 14q-95 0 -149.5 -63.5t-54.5 -154.5q0 -92 54.5 -156.5t148.5 -64.5z" />
    <glyph glyph-name="scaron.sc" horiz-adv-x="404" 
d="M184 563l-119 147h49l88 -95l86 95h49l-120 -147h-33zM191 -9q-93 0 -152 54l27 37q58 -47 127 -47q50 0 81.5 25t31.5 67q0 15 -3.5 27t-14.5 23.5t-17.5 18t-27 17t-27.5 14t-34 15.5q-62 28 -95.5 59.5t-33.5 85.5q0 59 44 95t109 36q81 0 135 -43l-25 -38
q-45 37 -109 37q-45 0 -73.5 -22.5t-28.5 -61.5q0 -21 7.5 -37t27.5 -30t31.5 -19.5t42.5 -19.5q27 -12 43 -20t38 -22.5t33.5 -29t20.5 -36.5t9 -47q0 -63 -46 -100.5t-121 -37.5z" />
    <glyph glyph-name="zcaron.sc" horiz-adv-x="454" 
d="M211 563l-119 147h49l88 -95l86 95h49l-120 -147h-33zM41 0v39l296 425h-283v44h347v-39l-299 -425h310v-44h-371z" />
    <glyph glyph-name="pi.sc" horiz-adv-x="579" 
d="M87 0v508h405v-508h-52v463h-300v-463h-53z" />
    <glyph glyph-name="fi.sc" horiz-adv-x="649" 
d="M87 0v508h289v-44h-236v-171h207v-44h-207v-249h-53zM506 0v508h53v-508h-53z" />
    <glyph glyph-name="fl.sc" horiz-adv-x="811" 
d="M87 0v508h289v-44h-236v-171h207v-44h-207v-249h-53zM504 0v508h53v-463h223v-45h-276z" />
    <glyph glyph-name="slash.ss01" horiz-adv-x="393" 
d="M5 -113l411 833h50l-411 -833h-50z" />
    <glyph glyph-name="pi.ss01" horiz-adv-x="629" 
d="M143 -127v560h-110v44h550v-44h-126v-323q0 -75 53 -75q34 0 58 15l19 -40q-32 -21 -82 -21q-100 0 -100 118v326h-208v-560h-54z" />
    <glyph glyph-name="parenleft.subs" horiz-adv-x="191" 
d="M143 -57q-99 93 -99 218t99 213h43q-93 -89 -93 -211q0 -125 93 -220h-43z" />
    <glyph glyph-name="parenright.subs" horiz-adv-x="191" 
d="M4 -57q94 92 94 216q0 123 -94 215h44q98 -89 98 -214q0 -127 -98 -217h-44z" />
    <glyph glyph-name="plus.subs" horiz-adv-x="331" 
d="M146 46v99h-112v37h112v95h40v-95h111v-36h-111v-100h-40z" />
    <glyph glyph-name="minus.subs" horiz-adv-x="291" 
d="M45 146v36h201v-36h-201z" />
    <glyph glyph-name="zero.tf" 
d="M255 -11q-57 0 -99.5 30.5t-65.5 82t-34 109t-11 122.5q0 66 10.5 123.5t33.5 109t65.5 81.5t100.5 30q57 0 100 -30.5t66.5 -82t34.5 -109.5t11 -122q0 -65 -11 -123t-34.5 -109t-66.5 -81.5t-100 -30.5zM255 34q55 0 91.5 45.5t50.5 109.5t14 144q0 58 -8.5 109t-26 95
t-49 69.5t-72.5 25.5q-42 0 -73 -25.5t-48.5 -69t-25.5 -94.5t-8 -110q0 -58 8.5 -109t25.5 -95t48.5 -69.5t72.5 -25.5z" />
    <glyph glyph-name="one.tf" 
d="M76 0v47h170v569l-162 -55l-11 44l179 61h47v-619h168v-47h-391z" />
    <glyph glyph-name="two.tf" 
d="M44 0v30q8 8 45 47.5t50 53.5t46.5 51.5t48 56.5t40.5 52.5t38 56t27 51t20.5 53.5t5.5 48q0 62 -34.5 96.5t-92.5 34.5q-86 0 -153 -67l-27 33q76 80 183 80q82 0 131.5 -45.5t49.5 -124.5q0 -65 -48.5 -149t-92 -135t-135.5 -148q-17 -19 -26 -28h317v-47h-393z" />
    <glyph glyph-name="three.tf" 
d="M177 -11q-69 0 -120 15l10 45q47 -14 112 -14q82 0 136 44t54 114q0 77 -65.5 113t-170.5 36v40q84 0 150 42t66 107q0 47 -34 72.5t-92 25.5q-80 0 -149 -59l-25 34q75 73 176 73q84 0 131.5 -38.5t47.5 -104.5q0 -58 -46.5 -103t-109.5 -62v-1q72 -9 124.5 -55.5
t52.5 -117.5q0 -94 -73 -150t-175 -56z" />
    <glyph glyph-name="four.tf" 
d="M330 0v159h-307v43l306 464h53v-459h90v-48h-90v-159h-52zM81 207h249v379z" />
    <glyph glyph-name="five.tf" 
d="M157 -11q-63 0 -100 11l10 45q40 -10 92 -10q90 0 151.5 46t61.5 128q0 83 -59.5 122t-153.5 39q-48 0 -75 -3l19 299h308v-47h-260l-13 -203h22q119 0 193.5 -51t74.5 -152q0 -107 -76 -165.5t-195 -58.5z" />
    <glyph glyph-name="six.tf" 
d="M259 -11q-43 0 -79 16.5t-60 43.5t-40 63t-23.5 74.5t-7.5 79.5q0 187 98.5 299.5t276.5 112.5l9 -43q-142 0 -225 -75.5t-100 -220.5q26 26 67.5 43t85.5 17q90 0 144 -57.5t54 -146.5q0 -87 -54.5 -146.5t-145.5 -59.5zM262 34q68 0 105 47t37 111q0 76 -38 119
t-109 43q-90 0 -153 -60q-1 -7 -1 -28q0 -101 40 -166.5t119 -65.5z" />
    <glyph glyph-name="seven.tf" 
d="M169 -23l-49 18l264 624h-336v47h392v-40z" />
    <glyph glyph-name="eight.tf" 
d="M254 -11q-90 0 -143 48.5t-53 121.5q0 102 154 191q-67 41 -102 78.5t-35 92.5q0 68 53.5 112t129.5 44q79 0 129.5 -42.5t50.5 -110.5q0 -30 -11.5 -55t-35.5 -46.5t-44 -35t-53 -33.5q73 -42 116 -86.5t43 -105.5q0 -76 -56 -124.5t-143 -48.5zM256 35q62 0 102 36
t40 91q0 26 -12 50t-36.5 45.5t-45.5 36t-55 34.5q-32 -21 -50 -34.5t-41.5 -35t-34 -45.5t-10.5 -51q0 -55 39.5 -91t103.5 -36zM257 377q33 21 48 31.5t37.5 29.5t32 39t9.5 43q0 48 -35 79.5t-91 31.5q-57 0 -93 -31t-36 -78q0 -24 9.5 -44.5t32 -40t38 -30t48.5 -30.5z
" />
    <glyph glyph-name="nine.tf" 
d="M94 -19l-9 43q137 0 217.5 78.5t97.5 223.5q-58 -58 -151 -58q-89 0 -143 57t-54 146q0 87 53.5 146.5t144.5 59.5q71 0 119.5 -42.5t68.5 -102.5t20 -131q0 -192 -92.5 -306t-271.5 -114zM253 313q89 0 150 58q1 7 1 29q0 102 -38.5 167t-117.5 65q-68 0 -104.5 -47
t-36.5 -111q0 -76 37.5 -118.5t108.5 -42.5z" />
    <glyph glyph-name="zero.tosf" 
d="M254 -11q-69 0 -118 38.5t-70 93t-21 117.5t21 118t70.5 93.5t119.5 38.5t119 -38t70 -92.5t21 -117.5q0 -100 -54.5 -175.5t-157.5 -75.5zM256 34q74 0 115 59t41 145q0 85 -42 145t-116 60q-73 0 -113.5 -59t-40.5 -144q0 -86 41 -146t115 -60z" />
    <glyph glyph-name="one.tosf" 
d="M93 0v45h153v383l-142 -52l-11 44l160 57h45v-432h161v-45h-366z" />
    <glyph glyph-name="two.tosf" 
d="M51 0v22q148 115 199 165q98 97 98 166q0 41 -26.5 65t-72.5 24q-40 0 -79 -17.5t-66 -42.5l-27 32q76 74 175 74q66 0 108.5 -33.5t42.5 -95.5q0 -32 -17 -68t-39 -64.5t-59 -63.5t-62 -55.5t-64 -51.5q-9 -7 -14 -11h297v-45h-394z" />
    <glyph glyph-name="three.tosf" 
d="M163 -188q-44 0 -87 8l9 45q30 -8 82 -8q78 0 139.5 43.5t61.5 110.5q0 75 -63.5 112.5t-160.5 37.5v41q42 1 87.5 18t80.5 52t35 78q0 41 -32 66.5t-81 25.5q-85 0 -147 -57l-27 31q74 72 177 72q74 0 119 -36.5t45 -97.5q0 -62 -47.5 -106t-104.5 -57v-1
q66 -9 119.5 -54t53.5 -119q0 -96 -78.5 -150.5t-180.5 -54.5z" />
    <glyph glyph-name="four.tosf" 
d="M324 -177v177h-303v35l315 442h40v-432h105v-45h-105v-177h-52zM81 45h243v343z" />
    <glyph glyph-name="five.tosf" 
d="M156 -188q-46 0 -83 8l9 44q28 -7 79 -7q81 0 140.5 49t59.5 128q0 82 -57 122t-145 40q-38 0 -62 -2l20 283h288v-45h-241l-13 -192h20q112 0 178.5 -54t66.5 -149q0 -97 -73.5 -161t-186.5 -64z" />
    <glyph glyph-name="six.tosf" 
d="M264 -11q-54 0 -95.5 24.5t-65.5 65t-35.5 87.5t-11.5 99q0 186 99 299.5t277 113.5l10 -44q-141 0 -226.5 -78t-100.5 -218q62 56 153 56q90 0 141.5 -56t51.5 -145q0 -85 -53.5 -144.5t-143.5 -59.5zM266 34q66 0 103.5 46t37.5 108q0 74 -37 117.5t-107 43.5
q-85 0 -152 -56v-33q0 -98 38 -162t117 -64z" />
    <glyph glyph-name="seven.tosf" 
d="M135 -197l-44 21l307 607h-349v46h405v-39z" />
    <glyph glyph-name="eight.tosf" 
d="M255 -11q-87 0 -139 49.5t-52 120.5q0 104 148 191q-68 42 -99.5 81t-31.5 88q0 68 51 113t123 45q80 0 128.5 -44.5t48.5 -110.5q0 -49 -33.5 -88t-103.5 -80q76 -45 114 -90t38 -101q0 -77 -54 -125.5t-138 -48.5zM257 35q62 0 99 37t37 91q0 44 -34.5 82.5
t-109.5 81.5q-67 -43 -99.5 -81t-32.5 -83q0 -54 39.5 -91t100.5 -37zM257 378q63 37 92.5 69.5t29.5 71.5q0 47 -33.5 80t-88.5 33t-89 -32t-34 -80q0 -39 29 -71.5t94 -70.5z" />
    <glyph glyph-name="nine.tosf" 
d="M64 -187l-9 43q141 0 231.5 75t105.5 213q-67 -54 -153 -54q-89 0 -139 54t-50 142q0 84 55 143t144 59q54 0 95 -24.5t63.5 -65.5t33 -87.5t10.5 -98.5q0 -184 -102.5 -291.5t-284.5 -107.5zM245 135q89 0 151 53v28q0 98 -36.5 162.5t-113.5 64.5q-63 0 -102 -44.5
t-39 -110.5q0 -71 35 -112t105 -41z" />
    <glyph glyph-name="commaaccent" horiz-adv-x="500" 
d="M211 -213q30 37 30 68q0 11 -11 26t-11 28q0 14 9 23t23 9q16 0 27 -12t11 -31q0 -29 -14.5 -60t-31.5 -51h-32z" />
    <glyph glyph-name="f_b" horiz-adv-x="802" 
d="M523 -11q-89 0 -143 36v646q-42 14 -107 14q-118 0 -118 -134v-74h119v-42h-119v-435h-51v435h-83v42h83v81q0 83 46 128t126 45q85 0 156 -23v-275q48 55 124 55q98 0 150.5 -69.5t52.5 -178.5q0 -104 -65 -177.5t-171 -73.5zM525 34q85 0 132 61t47 143q0 87 -37.5 145
t-118.5 58q-31 0 -63.5 -15.5t-52.5 -38.5v-334q38 -19 93 -19z" />
    <glyph glyph-name="f_f_b" horiz-adv-x="1076" 
d="M797 -11q-91 0 -143 36v646q-42 14 -107 14q-118 0 -118 -134v-74h124v-42h-124v-435h-52v435h-219v-435h-52v435h-85v42h85v69q0 82 47.5 131.5t129.5 49.5q84 0 136 -46q47 50 131 50q86 0 155 -23v-275q48 55 125 55q98 0 150 -69t52 -179q0 -104 -64.5 -177.5
t-170.5 -73.5zM798 34q86 0 133 61t47 143q0 87 -38 145t-119 58q-30 0 -62.5 -15.5t-53.5 -38.5v-334q38 -19 93 -19zM158 477h219v81q0 45 16 83q-44 40 -112 40q-58 0 -90.5 -37t-32.5 -111v-56z" />
    <glyph glyph-name="f_f_h" horiz-adv-x="1086" 
d="M106 0v435h-85v42h85v69q0 82 47.5 131.5t129.5 49.5q84 0 136 -46q47 50 131 50q86 0 155 -23v-307q23 33 64 60t95 27q70 0 104 -41t34 -109v-338h-52v327q0 114 -97 114q-47 0 -88 -31.5t-60 -62.5v-347h-51v671q-42 14 -107 14q-118 0 -118 -134v-74h124v-42h-124
v-435h-52v435h-219v-435h-52zM158 477h219v81q0 45 16 83q-44 40 -112 40q-58 0 -90.5 -37t-32.5 -111v-56z" />
    <glyph glyph-name="f_f_j" horiz-adv-x="788" 
d="M569 -229q-30 0 -44 7l9 44q12 -6 33 -6q73 0 73 122v497h-211v-435h-52v435h-219v-435h-52v435h-85v42h85v69q0 82 47.5 131.5t129.5 49.5q84 0 138 -46q47 50 132 50q79 0 140 -45l-26 -41q-50 40 -117 40q-59 0 -90 -34.5t-31 -100.5v-73h263v-550q0 -156 -123 -156z
M158 477h219v79q0 47 17 84q-45 41 -113 41q-58 0 -90.5 -37t-32.5 -111v-56z" />
    <glyph glyph-name="f_f_k" horiz-adv-x="1018" 
d="M106 0v435h-85v42h85v69q0 82 47.5 131.5t129.5 49.5q84 0 136 -46q47 50 131 50q86 0 155 -23v-708h-51v671q-42 14 -107 14q-118 0 -118 -134v-74h124v-42h-124v-435h-52v435h-219v-435h-52zM158 477h219v81q0 45 16 83q-44 40 -112 40q-58 0 -90.5 -37t-32.5 -111v-56
zM930 0l-220 268l209 209h65l-211 -209l222 -268h-65z" />
    <glyph glyph-name="f_h" horiz-adv-x="812" 
d="M104 0v435h-83v42h83v81q0 83 46 128t126 45q85 0 156 -23v-307q23 33 64 60t94 27q71 0 104.5 -40.5t33.5 -109.5v-338h-51v327q0 114 -98 114q-47 0 -87.5 -31.5t-59.5 -62.5v-347h-52v671q-42 14 -107 14q-118 0 -118 -134v-74h119v-42h-119v-435h-51z" />
    <glyph glyph-name="f_j" horiz-adv-x="518" 
d="M299 -229q-31 0 -43 7l9 44q12 -6 32 -6q41 0 57.5 31t16.5 91v497h-216v-435h-51v435h-83v42h83v79q0 81 46.5 128t128.5 47q80 0 141 -45l-26 -41q-52 40 -118 40q-58 0 -89.5 -34.5t-31.5 -100.5v-73h267v-550q0 -156 -123 -156z" />
    <glyph glyph-name="f_k" horiz-adv-x="744" 
d="M104 0v435h-83v42h83v81q0 83 46 128t126 45q85 0 156 -23v-708h-52v671q-42 14 -107 14q-118 0 -118 -134v-74h119v-42h-119v-435h-51zM657 0l-221 268l210 209h65l-212 -209l222 -268h-64z" />
    </font>
</defs>
</svg>
